%TF.GenerationSoftware,KiCad,Pcbnew,7.0.10-7.0.10~ubuntu22.04.1*%
%TF.CreationDate,2024-01-15T22:38:42+07:00*%
%TF.ProjectId,PCB_Sensor,5043425f-5365-46e7-936f-722e6b696361,rev?*%
%TF.SameCoordinates,Original*%
%TF.FileFunction,Paste,Top*%
%TF.FilePolarity,Positive*%
%FSLAX46Y46*%
G04 Gerber Fmt 4.6, Leading zero omitted, Abs format (unit mm)*
G04 Created by KiCad (PCBNEW 7.0.10-7.0.10~ubuntu22.04.1) date 2024-01-15 22:38:42*
%MOMM*%
%LPD*%
G01*
G04 APERTURE LIST*
G04 Aperture macros list*
%AMRoundRect*
0 Rectangle with rounded corners*
0 $1 Rounding radius*
0 $2 $3 $4 $5 $6 $7 $8 $9 X,Y pos of 4 corners*
0 Add a 4 corners polygon primitive as box body*
4,1,4,$2,$3,$4,$5,$6,$7,$8,$9,$2,$3,0*
0 Add four circle primitives for the rounded corners*
1,1,$1+$1,$2,$3*
1,1,$1+$1,$4,$5*
1,1,$1+$1,$6,$7*
1,1,$1+$1,$8,$9*
0 Add four rect primitives between the rounded corners*
20,1,$1+$1,$2,$3,$4,$5,0*
20,1,$1+$1,$4,$5,$6,$7,0*
20,1,$1+$1,$6,$7,$8,$9,0*
20,1,$1+$1,$8,$9,$2,$3,0*%
G04 Aperture macros list end*
%ADD10RoundRect,0.250000X-0.400000X-0.625000X0.400000X-0.625000X0.400000X0.625000X-0.400000X0.625000X0*%
%ADD11R,1.000000X0.750000*%
%ADD12RoundRect,0.250000X-1.050000X-0.550000X1.050000X-0.550000X1.050000X0.550000X-1.050000X0.550000X0*%
%ADD13RoundRect,0.250000X-0.412500X-0.650000X0.412500X-0.650000X0.412500X0.650000X-0.412500X0.650000X0*%
%ADD14R,2.000000X1.500000*%
%ADD15R,2.000000X3.800000*%
%ADD16RoundRect,0.150000X0.825000X0.150000X-0.825000X0.150000X-0.825000X-0.150000X0.825000X-0.150000X0*%
%ADD17RoundRect,0.250001X-0.462499X-0.624999X0.462499X-0.624999X0.462499X0.624999X-0.462499X0.624999X0*%
%ADD18RoundRect,0.250000X0.400000X0.625000X-0.400000X0.625000X-0.400000X-0.625000X0.400000X-0.625000X0*%
G04 APERTURE END LIST*
D10*
%TO.C,R2*%
X98500000Y-58420000D03*
X101600000Y-58420000D03*
%TD*%
D11*
%TO.C,SW4*%
X85900000Y-99725000D03*
X91900000Y-99725000D03*
X85900000Y-103475000D03*
X91900000Y-103475000D03*
%TD*%
%TO.C,SW2*%
X132540000Y-99725000D03*
X138540000Y-99725000D03*
X132540000Y-103475000D03*
X138540000Y-103475000D03*
%TD*%
D12*
%TO.C,C1*%
X102340000Y-25400000D03*
X105940000Y-25400000D03*
%TD*%
D13*
%TO.C,C3*%
X143677500Y-106015000D03*
X146802500Y-106015000D03*
%TD*%
D10*
%TO.C,R6*%
X128487500Y-58000000D03*
X131587500Y-58000000D03*
%TD*%
D13*
%TO.C,C4*%
X133977500Y-106015000D03*
X137102500Y-106015000D03*
%TD*%
D10*
%TO.C,R1*%
X128487500Y-66880000D03*
X131587500Y-66880000D03*
%TD*%
D14*
%TO.C,U2*%
X96390000Y-30480000D03*
X96390000Y-28180000D03*
D15*
X90090000Y-28180000D03*
D14*
X96390000Y-25880000D03*
%TD*%
D10*
%TO.C,R5*%
X128487500Y-60960000D03*
X131587500Y-60960000D03*
%TD*%
D11*
%TO.C,SW3*%
X75740000Y-99725000D03*
X81740000Y-99725000D03*
X75740000Y-103475000D03*
X81740000Y-103475000D03*
%TD*%
D13*
%TO.C,C5*%
X77177500Y-106015000D03*
X80302500Y-106015000D03*
%TD*%
D12*
%TO.C,C2*%
X102340000Y-33020000D03*
X105940000Y-33020000D03*
%TD*%
D16*
%TO.C,U3*%
X149795000Y-65405000D03*
X149795000Y-64135000D03*
X149795000Y-62865000D03*
X149795000Y-61595000D03*
X149795000Y-60325000D03*
X149795000Y-59055000D03*
X149795000Y-57785000D03*
X149795000Y-56515000D03*
X144845000Y-56515000D03*
X144845000Y-57785000D03*
X144845000Y-59055000D03*
X144845000Y-60325000D03*
X144845000Y-61595000D03*
X144845000Y-62865000D03*
X144845000Y-64135000D03*
X144845000Y-65405000D03*
%TD*%
D10*
%TO.C,R4*%
X128487500Y-63920000D03*
X131587500Y-63920000D03*
%TD*%
D17*
%TO.C,D3*%
X134620000Y-60935000D03*
X137595000Y-60935000D03*
%TD*%
D13*
%TO.C,C6*%
X87337500Y-106015000D03*
X90462500Y-106015000D03*
%TD*%
D17*
%TO.C,D1*%
X134620000Y-66855000D03*
X137595000Y-66855000D03*
%TD*%
D11*
%TO.C,SW1*%
X142240000Y-99725000D03*
X148240000Y-99725000D03*
X142240000Y-103475000D03*
X148240000Y-103475000D03*
%TD*%
D17*
%TO.C,D4*%
X134620000Y-57975000D03*
X137595000Y-57975000D03*
%TD*%
D18*
%TO.C,R3*%
X101600000Y-55880000D03*
X98500000Y-55880000D03*
%TD*%
D17*
%TO.C,D2*%
X134620000Y-63895000D03*
X137595000Y-63895000D03*
%TD*%
M02*
