%TF.GenerationSoftware,KiCad,Pcbnew,7.0.10-7.0.10~ubuntu22.04.1*%
%TF.CreationDate,2024-01-15T22:38:53+07:00*%
%TF.ProjectId,PCB_Sensor,5043425f-5365-46e7-936f-722e6b696361,rev?*%
%TF.SameCoordinates,Original*%
%TF.FileFunction,Plated,1,2,PTH,Drill*%
%TF.FilePolarity,Positive*%
%FSLAX46Y46*%
G04 Gerber Fmt 4.6, Leading zero omitted, Abs format (unit mm)*
G04 Created by KiCad (PCBNEW 7.0.10-7.0.10~ubuntu22.04.1) date 2024-01-15 22:38:53*
%MOMM*%
%LPD*%
G01*
G04 APERTURE LIST*
%TA.AperFunction,ViaDrill*%
%ADD10C,0.400000*%
%TD*%
%TA.AperFunction,ComponentDrill*%
%ADD11C,1.000000*%
%TD*%
%TA.AperFunction,ComponentDrill*%
%ADD12C,1.016000*%
%TD*%
%TA.AperFunction,ComponentDrill*%
%ADD13C,4.550000*%
%TD*%
G04 APERTURE END LIST*
D10*
X78740000Y-101600000D03*
X85900000Y-103475000D03*
X93980000Y-104140000D03*
X99060000Y-58420000D03*
X101600000Y-55880000D03*
X106680000Y-33020000D03*
X109220000Y-63500000D03*
X111760000Y-96520000D03*
X111760000Y-96520000D03*
X114300000Y-63500000D03*
X116381777Y-95354670D03*
X116840000Y-48260000D03*
X118110000Y-57150000D03*
X119380000Y-71120000D03*
X121920000Y-53340000D03*
X124460000Y-63500000D03*
X134620000Y-58420000D03*
X134620000Y-60960000D03*
X134620000Y-63500000D03*
X134620000Y-67310000D03*
X134620000Y-101600000D03*
X139700000Y-87630000D03*
X142240000Y-58420000D03*
X144780000Y-101600000D03*
X147320000Y-60960000D03*
X152400000Y-54610000D03*
D11*
%TO.C,J11*%
X78000000Y-48260000D03*
X80540000Y-48260000D03*
X83080000Y-48260000D03*
X85620000Y-48260000D03*
X88160000Y-48260000D03*
X90700000Y-48260000D03*
%TO.C,J8*%
X93980000Y-55880000D03*
X93980000Y-58420000D03*
X93980000Y-60960000D03*
%TO.C,J2*%
X93980000Y-71120000D03*
X93980000Y-73660000D03*
X93980000Y-76200000D03*
%TO.C,J9*%
X93980000Y-83820000D03*
X93980000Y-86360000D03*
X93980000Y-88900000D03*
X93980000Y-91440000D03*
%TO.C,J1*%
X98320000Y-48260000D03*
X100860000Y-48260000D03*
X103400000Y-48260000D03*
%TO.C,J7*%
X111760000Y-50800000D03*
X111760000Y-53340000D03*
X111760000Y-55880000D03*
X111760000Y-58420000D03*
%TO.C,J15*%
X129540000Y-43180000D03*
%TO.C,J14*%
X129540000Y-45720000D03*
%TO.C,J15*%
X132080000Y-43180000D03*
%TO.C,J14*%
X132080000Y-45720000D03*
%TO.C,J15*%
X134620000Y-43180000D03*
%TO.C,J14*%
X134620000Y-45720000D03*
%TO.C,BZ1*%
X135900000Y-83820000D03*
%TO.C,J15*%
X137160000Y-43180000D03*
%TO.C,J14*%
X137160000Y-45720000D03*
%TO.C,BZ1*%
X143500000Y-83820000D03*
%TO.C,J5*%
X157480000Y-33020000D03*
X157480000Y-35560000D03*
%TO.C,J4*%
X157480000Y-40640000D03*
X157480000Y-43180000D03*
X157480000Y-45720000D03*
%TO.C,J12*%
X157480000Y-50800000D03*
X157480000Y-53340000D03*
X157480000Y-55880000D03*
X157480000Y-58420000D03*
X157480000Y-60960000D03*
X157480000Y-63500000D03*
X157480000Y-66040000D03*
X157480000Y-68580000D03*
%TO.C,J13*%
X157480000Y-76200000D03*
X157480000Y-78740000D03*
X157480000Y-81280000D03*
X157480000Y-83820000D03*
X157480000Y-86360000D03*
X157480000Y-88900000D03*
X157480000Y-91440000D03*
%TO.C,J10*%
X157480000Y-96520000D03*
X157480000Y-99060000D03*
X157480000Y-101600000D03*
X157480000Y-104140000D03*
D12*
%TO.C,U1*%
X106807000Y-56180000D03*
X106807000Y-58720000D03*
X106807000Y-61260000D03*
X106807000Y-63800000D03*
X106807000Y-66340000D03*
X106807000Y-68880000D03*
X106807000Y-71420000D03*
X106807000Y-73960000D03*
X106807000Y-76500000D03*
X106807000Y-79040000D03*
X106807000Y-81580000D03*
X106807000Y-84120000D03*
X106807000Y-86660000D03*
X106807000Y-89200000D03*
X106807000Y-91740000D03*
X106807000Y-94280000D03*
X106807000Y-96820000D03*
X106807000Y-99360000D03*
X106807000Y-101900000D03*
X106807000Y-104440000D03*
X110490000Y-100203000D03*
X113030000Y-100203000D03*
X115570000Y-100203000D03*
X118110000Y-100203000D03*
X122047000Y-56180000D03*
X122047000Y-58720000D03*
X122047000Y-61260000D03*
X122047000Y-63800000D03*
X122047000Y-66340000D03*
X122047000Y-68880000D03*
X122047000Y-71420000D03*
X122047000Y-73960000D03*
X122047000Y-76500000D03*
X122047000Y-79040000D03*
X122047000Y-81580000D03*
X122047000Y-84120000D03*
X122047000Y-86660000D03*
X122047000Y-89200000D03*
X122047000Y-91740000D03*
X122047000Y-94280000D03*
X122047000Y-96820000D03*
X122047000Y-99360000D03*
X122047000Y-101900000D03*
X122047000Y-104440000D03*
D13*
%TO.C,J6*%
X79060000Y-27120000D03*
X79060000Y-34320000D03*
M02*
