%TF.GenerationSoftware,KiCad,Pcbnew,7.0.10-7.0.10~ubuntu22.04.1*%
%TF.CreationDate,2024-01-15T22:38:42+07:00*%
%TF.ProjectId,PCB_Sensor,5043425f-5365-46e7-936f-722e6b696361,rev?*%
%TF.SameCoordinates,Original*%
%TF.FileFunction,Soldermask,Top*%
%TF.FilePolarity,Negative*%
%FSLAX46Y46*%
G04 Gerber Fmt 4.6, Leading zero omitted, Abs format (unit mm)*
G04 Created by KiCad (PCBNEW 7.0.10-7.0.10~ubuntu22.04.1) date 2024-01-15 22:38:42*
%MOMM*%
%LPD*%
G01*
G04 APERTURE LIST*
G04 Aperture macros list*
%AMRoundRect*
0 Rectangle with rounded corners*
0 $1 Rounding radius*
0 $2 $3 $4 $5 $6 $7 $8 $9 X,Y pos of 4 corners*
0 Add a 4 corners polygon primitive as box body*
4,1,4,$2,$3,$4,$5,$6,$7,$8,$9,$2,$3,0*
0 Add four circle primitives for the rounded corners*
1,1,$1+$1,$2,$3*
1,1,$1+$1,$4,$5*
1,1,$1+$1,$6,$7*
1,1,$1+$1,$8,$9*
0 Add four rect primitives between the rounded corners*
20,1,$1+$1,$2,$3,$4,$5,0*
20,1,$1+$1,$4,$5,$6,$7,0*
20,1,$1+$1,$6,$7,$8,$9,0*
20,1,$1+$1,$8,$9,$2,$3,0*%
G04 Aperture macros list end*
%ADD10R,1.700000X1.700000*%
%ADD11O,1.700000X1.700000*%
%ADD12RoundRect,0.250000X-0.400000X-0.625000X0.400000X-0.625000X0.400000X0.625000X-0.400000X0.625000X0*%
%ADD13C,6.204000*%
%ADD14RoundRect,0.102000X-3.000000X3.000000X-3.000000X-3.000000X3.000000X-3.000000X3.000000X3.000000X0*%
%ADD15R,1.000000X0.750000*%
%ADD16RoundRect,0.250000X-1.050000X-0.550000X1.050000X-0.550000X1.050000X0.550000X-1.050000X0.550000X0*%
%ADD17RoundRect,0.250000X-0.412500X-0.650000X0.412500X-0.650000X0.412500X0.650000X-0.412500X0.650000X0*%
%ADD18R,2.000000X2.000000*%
%ADD19C,2.000000*%
%ADD20R,2.000000X1.500000*%
%ADD21R,2.000000X3.800000*%
%ADD22RoundRect,0.150000X0.825000X0.150000X-0.825000X0.150000X-0.825000X-0.150000X0.825000X-0.150000X0*%
%ADD23RoundRect,0.250001X-0.462499X-0.624999X0.462499X-0.624999X0.462499X0.624999X-0.462499X0.624999X0*%
%ADD24RoundRect,0.250000X0.400000X0.625000X-0.400000X0.625000X-0.400000X-0.625000X0.400000X-0.625000X0*%
%ADD25C,2.082800*%
%ADD26RoundRect,0.101600X0.939800X-0.939800X0.939800X0.939800X-0.939800X0.939800X-0.939800X-0.939800X0*%
G04 APERTURE END LIST*
D10*
%TO.C,J4*%
X157480000Y-40640000D03*
D11*
X157480000Y-43180000D03*
X157480000Y-45720000D03*
%TD*%
D10*
%TO.C,J10*%
X157480000Y-96520000D03*
D11*
X157480000Y-99060000D03*
X157480000Y-101600000D03*
X157480000Y-104140000D03*
%TD*%
D12*
%TO.C,R2*%
X98500000Y-58420000D03*
X101600000Y-58420000D03*
%TD*%
D13*
%TO.C,J6*%
X79060000Y-34320000D03*
D14*
X79060000Y-27120000D03*
%TD*%
D10*
%TO.C,J1*%
X98320000Y-48260000D03*
D11*
X100860000Y-48260000D03*
X103400000Y-48260000D03*
%TD*%
D10*
%TO.C,J5*%
X157480000Y-33020000D03*
D11*
X157480000Y-35560000D03*
%TD*%
D15*
%TO.C,SW4*%
X85900000Y-99725000D03*
X91900000Y-99725000D03*
X85900000Y-103475000D03*
X91900000Y-103475000D03*
%TD*%
%TO.C,SW2*%
X132540000Y-99725000D03*
X138540000Y-99725000D03*
X132540000Y-103475000D03*
X138540000Y-103475000D03*
%TD*%
D16*
%TO.C,C1*%
X102340000Y-25400000D03*
X105940000Y-25400000D03*
%TD*%
D10*
%TO.C,J8*%
X93980000Y-60960000D03*
D11*
X93980000Y-58420000D03*
X93980000Y-55880000D03*
%TD*%
D10*
%TO.C,J2*%
X93980000Y-71120000D03*
D11*
X93980000Y-73660000D03*
X93980000Y-76200000D03*
%TD*%
D17*
%TO.C,C3*%
X143677500Y-106015000D03*
X146802500Y-106015000D03*
%TD*%
D10*
%TO.C,J13*%
X157480000Y-76200000D03*
D11*
X157480000Y-78740000D03*
X157480000Y-81280000D03*
X157480000Y-83820000D03*
X157480000Y-86360000D03*
X157480000Y-88900000D03*
X157480000Y-91440000D03*
%TD*%
D12*
%TO.C,R6*%
X128487500Y-58000000D03*
X131587500Y-58000000D03*
%TD*%
D17*
%TO.C,C4*%
X133977500Y-106015000D03*
X137102500Y-106015000D03*
%TD*%
D10*
%TO.C,J14*%
X137160000Y-45720000D03*
D11*
X134620000Y-45720000D03*
X132080000Y-45720000D03*
X129540000Y-45720000D03*
%TD*%
D10*
%TO.C,J15*%
X129540000Y-43180000D03*
D11*
X132080000Y-43180000D03*
X134620000Y-43180000D03*
X137160000Y-43180000D03*
%TD*%
D18*
%TO.C,BZ1*%
X135900000Y-83820000D03*
D19*
X143500000Y-83820000D03*
%TD*%
D12*
%TO.C,R1*%
X128487500Y-66880000D03*
X131587500Y-66880000D03*
%TD*%
D20*
%TO.C,U2*%
X96390000Y-30480000D03*
X96390000Y-28180000D03*
D21*
X90090000Y-28180000D03*
D20*
X96390000Y-25880000D03*
%TD*%
D10*
%TO.C,J7*%
X111760000Y-50800000D03*
D11*
X111760000Y-53340000D03*
X111760000Y-55880000D03*
X111760000Y-58420000D03*
%TD*%
D10*
%TO.C,J9*%
X93980000Y-91440000D03*
D11*
X93980000Y-88900000D03*
X93980000Y-86360000D03*
X93980000Y-83820000D03*
%TD*%
D12*
%TO.C,R5*%
X128487500Y-60960000D03*
X131587500Y-60960000D03*
%TD*%
D15*
%TO.C,SW3*%
X75740000Y-99725000D03*
X81740000Y-99725000D03*
X75740000Y-103475000D03*
X81740000Y-103475000D03*
%TD*%
D17*
%TO.C,C5*%
X77177500Y-106015000D03*
X80302500Y-106015000D03*
%TD*%
D10*
%TO.C,J11*%
X78000000Y-48260000D03*
D11*
X80540000Y-48260000D03*
X83080000Y-48260000D03*
X85620000Y-48260000D03*
X88160000Y-48260000D03*
X90700000Y-48260000D03*
%TD*%
D16*
%TO.C,C2*%
X102340000Y-33020000D03*
X105940000Y-33020000D03*
%TD*%
D22*
%TO.C,U3*%
X149795000Y-65405000D03*
X149795000Y-64135000D03*
X149795000Y-62865000D03*
X149795000Y-61595000D03*
X149795000Y-60325000D03*
X149795000Y-59055000D03*
X149795000Y-57785000D03*
X149795000Y-56515000D03*
X144845000Y-56515000D03*
X144845000Y-57785000D03*
X144845000Y-59055000D03*
X144845000Y-60325000D03*
X144845000Y-61595000D03*
X144845000Y-62865000D03*
X144845000Y-64135000D03*
X144845000Y-65405000D03*
%TD*%
D12*
%TO.C,R4*%
X128487500Y-63920000D03*
X131587500Y-63920000D03*
%TD*%
D23*
%TO.C,D3*%
X134620000Y-60935000D03*
X137595000Y-60935000D03*
%TD*%
D17*
%TO.C,C6*%
X87337500Y-106015000D03*
X90462500Y-106015000D03*
%TD*%
D23*
%TO.C,D1*%
X134620000Y-66855000D03*
X137595000Y-66855000D03*
%TD*%
D15*
%TO.C,SW1*%
X142240000Y-99725000D03*
X148240000Y-99725000D03*
X142240000Y-103475000D03*
X148240000Y-103475000D03*
%TD*%
D10*
%TO.C,J12*%
X157480000Y-68580000D03*
D11*
X157480000Y-66040000D03*
X157480000Y-63500000D03*
X157480000Y-60960000D03*
X157480000Y-58420000D03*
X157480000Y-55880000D03*
X157480000Y-53340000D03*
X157480000Y-50800000D03*
%TD*%
D23*
%TO.C,D4*%
X134620000Y-57975000D03*
X137595000Y-57975000D03*
%TD*%
D24*
%TO.C,R3*%
X101600000Y-55880000D03*
X98500000Y-55880000D03*
%TD*%
D23*
%TO.C,D2*%
X134620000Y-63895000D03*
X137595000Y-63895000D03*
%TD*%
D25*
%TO.C,U1*%
X122047000Y-56180000D03*
X122047000Y-58720000D03*
X122047000Y-61260000D03*
X122047000Y-63800000D03*
X122047000Y-66340000D03*
X122047000Y-68880000D03*
X122047000Y-71420000D03*
X122047000Y-73960000D03*
X122047000Y-76500000D03*
X122047000Y-79040000D03*
X122047000Y-81580000D03*
X122047000Y-84120000D03*
X122047000Y-86660000D03*
X122047000Y-89200000D03*
X122047000Y-91740000D03*
X122047000Y-94280000D03*
X122047000Y-96820000D03*
X122047000Y-99360000D03*
X122047000Y-101900000D03*
X122047000Y-104440000D03*
X106807000Y-104440000D03*
X106807000Y-101900000D03*
X106807000Y-99360000D03*
X106807000Y-96820000D03*
X106807000Y-94280000D03*
X106807000Y-91740000D03*
X106807000Y-89200000D03*
X106807000Y-86660000D03*
X106807000Y-84120000D03*
X106807000Y-81580000D03*
X106807000Y-79040000D03*
X106807000Y-76500000D03*
X106807000Y-73960000D03*
X106807000Y-71420000D03*
X106807000Y-68880000D03*
X106807000Y-66340000D03*
X106807000Y-63800000D03*
X106807000Y-61260000D03*
X106807000Y-58720000D03*
X106807000Y-56180000D03*
D26*
X118110000Y-100203000D03*
D25*
X115570000Y-100203000D03*
X113030000Y-100203000D03*
X110490000Y-100203000D03*
%TD*%
M02*
