M48
; DRILL file {KiCad 7.0.10-7.0.10~ubuntu22.04.1} date Tue 16 Jan 2024 10:39:10 PM WIB
; FORMAT={-:-/ absolute / inch / decimal}
; #@! TF.CreationDate,2024-01-16T22:39:10+07:00
; #@! TF.GenerationSoftware,Kicad,Pcbnew,7.0.10-7.0.10~ubuntu22.04.1
; #@! TF.FileFunction,Plated,1,2,PTH
FMAT,2
INCH
; #@! TA.AperFunction,Plated,PTH,ViaDrill
T1C0.0157
; #@! TA.AperFunction,Plated,PTH,ComponentDrill
T2C0.0394
; #@! TA.AperFunction,Plated,PTH,ComponentDrill
T3C0.0400
; #@! TA.AperFunction,Plated,PTH,ComponentDrill
T4C0.0598
; #@! TA.AperFunction,Plated,PTH,ComponentDrill
T5C0.1791
%
G90
G05
T1
X3.1Y-5.0
X3.3819Y-5.0738
X3.7Y-5.1
X3.9Y-3.3
X4.0Y-3.2
X4.2Y-2.3
X4.3Y-3.5
X4.4Y-4.8
X4.4Y-4.8
X4.5Y-3.5
X4.582Y-4.7541
X4.6Y-2.9
X4.65Y-3.25
X4.7Y-3.8
X4.8Y-3.1
X4.9Y-3.5
X5.3Y-3.3
X5.3Y-3.4
X5.3Y-3.5
X5.3Y-3.65
X5.3Y-5.0
X5.5Y-4.45
X5.6Y-3.3
X5.7Y-5.0
X5.8Y-3.4
X6.0Y-3.15
T2
X2.8Y-1.4
X2.8Y-5.7
X2.9Y-1.4
X2.9Y-5.7
X3.0Y-1.4
X3.0Y-5.7
X3.0709Y-2.9
X3.1Y-1.4
X3.1Y-5.7
X3.1709Y-2.9
X3.2709Y-2.9
X3.3709Y-2.9
X3.4709Y-2.9
X3.5709Y-2.9
X3.7Y-3.2
X3.7Y-3.3
X3.7Y-3.4
X3.7Y-3.8
X3.7Y-3.9
X3.7Y-4.0
X3.7Y-4.3
X3.7Y-4.4
X3.7Y-4.5
X3.7Y-4.6
X3.8709Y-2.9
X3.9709Y-2.9
X4.0709Y-2.9
X4.4Y-3.0
X4.4Y-3.1
X4.4Y-3.2
X4.4Y-3.3
X5.1Y-2.7
X5.1Y-2.8
X5.2Y-2.7
X5.2Y-2.8
X5.3Y-2.7
X5.3Y-2.8
X5.3504Y-4.3
X5.4Y-2.7
X5.4Y-2.8
X5.6496Y-4.3
X6.1Y-1.4
X6.1Y-5.7
X6.2Y-1.4
X6.2Y-2.3
X6.2Y-2.4
X6.2Y-2.6
X6.2Y-2.7
X6.2Y-2.8
X6.2Y-3.0
X6.2Y-3.1
X6.2Y-3.2
X6.2Y-3.3
X6.2Y-3.4
X6.2Y-3.5
X6.2Y-3.6
X6.2Y-3.7
X6.2Y-4.0
X6.2Y-4.1
X6.2Y-4.2
X6.2Y-4.3
X6.2Y-4.4
X6.2Y-4.5
X6.2Y-4.6
X6.2Y-4.8
X6.2Y-4.9
X6.2Y-5.0
X6.2Y-5.1
X6.2Y-5.7
X6.3Y-1.4
X6.3Y-5.7
X6.4Y-1.4
X6.4Y-5.7
X6.7Y-2.5
X6.7Y-2.6
X6.7Y-2.7
X6.7Y-2.8
X6.7Y-3.0
X6.7Y-3.1
X6.7Y-3.2
X6.7Y-3.3
X6.7Y-3.5
X6.7Y-3.6
X6.7Y-3.7
X6.7Y-3.8
X6.7Y-4.0
X6.7Y-4.1
X6.7Y-4.2
X6.7Y-4.3
T3
X4.205Y-3.2118
X4.205Y-3.3118
X4.205Y-3.4118
X4.205Y-3.5118
X4.205Y-3.6118
X4.205Y-3.7118
X4.205Y-3.8118
X4.205Y-3.9118
X4.205Y-4.0118
X4.205Y-4.1118
X4.205Y-4.2118
X4.205Y-4.3118
X4.205Y-4.4118
X4.205Y-4.5118
X4.205Y-4.6118
X4.205Y-4.7118
X4.205Y-4.8118
X4.205Y-4.9118
X4.205Y-5.0118
X4.205Y-5.1118
X4.35Y-4.945
X4.45Y-4.945
X4.55Y-4.945
X4.65Y-4.945
X4.805Y-3.2118
X4.805Y-3.3118
X4.805Y-3.4118
X4.805Y-3.5118
X4.805Y-3.6118
X4.805Y-3.7118
X4.805Y-3.8118
X4.805Y-3.9118
X4.805Y-4.0118
X4.805Y-4.1118
X4.805Y-4.2118
X4.805Y-4.3118
X4.805Y-4.4118
X4.805Y-4.5118
X4.805Y-4.6118
X4.805Y-4.7118
X4.805Y-4.8118
X4.805Y-4.9118
X4.805Y-5.0118
X4.805Y-5.1118
T4
X2.5Y-1.5
X2.5Y-1.7
X2.5Y-2.7333
X2.5Y-2.9333
X2.5Y-3.1667
X2.5Y-3.3667
X2.5Y-3.6
X2.5Y-3.8
X2.5Y-4.0333
X2.5Y-4.2333
X2.5Y-5.4
X2.5Y-5.6
X6.7Y-1.5
X6.7Y-1.7
X6.7Y-5.4
X6.7Y-5.6
T5
X3.1126Y-2.0677
X3.1126Y-2.3512
M30
