%TF.GenerationSoftware,KiCad,Pcbnew,7.0.10-7.0.10~ubuntu22.04.1*%
%TF.CreationDate,2024-01-16T22:39:05+07:00*%
%TF.ProjectId,PCB_Sensor,5043425f-5365-46e7-936f-722e6b696361,rev?*%
%TF.SameCoordinates,Original*%
%TF.FileFunction,Soldermask,Bot*%
%TF.FilePolarity,Negative*%
%FSLAX46Y46*%
G04 Gerber Fmt 4.6, Leading zero omitted, Abs format (unit mm)*
G04 Created by KiCad (PCBNEW 7.0.10-7.0.10~ubuntu22.04.1) date 2024-01-16 22:39:05*
%MOMM*%
%LPD*%
G01*
G04 APERTURE LIST*
G04 Aperture macros list*
%AMRoundRect*
0 Rectangle with rounded corners*
0 $1 Rounding radius*
0 $2 $3 $4 $5 $6 $7 $8 $9 X,Y pos of 4 corners*
0 Add a 4 corners polygon primitive as box body*
4,1,4,$2,$3,$4,$5,$6,$7,$8,$9,$2,$3,0*
0 Add four circle primitives for the rounded corners*
1,1,$1+$1,$2,$3*
1,1,$1+$1,$4,$5*
1,1,$1+$1,$6,$7*
1,1,$1+$1,$8,$9*
0 Add four rect primitives between the rounded corners*
20,1,$1+$1,$2,$3,$4,$5,0*
20,1,$1+$1,$4,$5,$6,$7,0*
20,1,$1+$1,$6,$7,$8,$9,0*
20,1,$1+$1,$8,$9,$2,$3,0*%
G04 Aperture macros list end*
%ADD10R,1.700000X1.700000*%
%ADD11O,1.700000X1.700000*%
%ADD12C,3.000000*%
%ADD13R,3.000000X3.000000*%
%ADD14C,6.204000*%
%ADD15RoundRect,0.102000X-3.000000X3.000000X-3.000000X-3.000000X3.000000X-3.000000X3.000000X3.000000X0*%
%ADD16R,2.000000X2.000000*%
%ADD17C,2.000000*%
%ADD18C,2.082800*%
%ADD19RoundRect,0.101600X0.939800X-0.939800X0.939800X0.939800X-0.939800X0.939800X-0.939800X-0.939800X0*%
G04 APERTURE END LIST*
D10*
%TO.C,J30*%
X170180000Y-88900000D03*
D11*
X170180000Y-91440000D03*
X170180000Y-93980000D03*
X170180000Y-96520000D03*
%TD*%
D10*
%TO.C,J29*%
X170180000Y-101600000D03*
D11*
X170180000Y-104140000D03*
X170180000Y-106680000D03*
X170180000Y-109220000D03*
%TD*%
D10*
%TO.C,J28*%
X170180000Y-76200000D03*
D11*
X170180000Y-78740000D03*
X170180000Y-81280000D03*
X170180000Y-83820000D03*
%TD*%
D10*
%TO.C,J27*%
X170180000Y-63500000D03*
D11*
X170180000Y-66040000D03*
X170180000Y-68580000D03*
X170180000Y-71120000D03*
%TD*%
D10*
%TO.C,J26*%
X71120000Y-144780000D03*
D11*
X73660000Y-144780000D03*
X76200000Y-144780000D03*
X78740000Y-144780000D03*
%TD*%
D10*
%TO.C,J25*%
X78740000Y-35560000D03*
D11*
X76200000Y-35560000D03*
X73660000Y-35560000D03*
X71120000Y-35560000D03*
%TD*%
D10*
%TO.C,J24*%
X154940000Y-144780000D03*
D11*
X157480000Y-144780000D03*
X160020000Y-144780000D03*
X162560000Y-144780000D03*
%TD*%
D10*
%TO.C,J23*%
X162560000Y-35560000D03*
D11*
X160020000Y-35560000D03*
X157480000Y-35560000D03*
X154940000Y-35560000D03*
%TD*%
D12*
%TO.C,J22*%
X63500000Y-102446668D03*
D13*
X63500000Y-107526668D03*
%TD*%
D12*
%TO.C,J21*%
X63500000Y-91440000D03*
D13*
X63500000Y-96520000D03*
%TD*%
D12*
%TO.C,J20*%
X63500000Y-80433334D03*
D13*
X63500000Y-85513334D03*
%TD*%
%TO.C,J19*%
X63500000Y-43180000D03*
D12*
X63500000Y-38100000D03*
%TD*%
D13*
%TO.C,J18*%
X170180000Y-142240000D03*
D12*
X170180000Y-137160000D03*
%TD*%
D13*
%TO.C,J17*%
X170180000Y-43180000D03*
D12*
X170180000Y-38100000D03*
%TD*%
D13*
%TO.C,J16*%
X63500000Y-142240000D03*
D12*
X63500000Y-137160000D03*
%TD*%
D13*
%TO.C,J3*%
X63500000Y-74506668D03*
D12*
X63500000Y-69426668D03*
%TD*%
D10*
%TO.C,J4*%
X157480000Y-66040000D03*
D11*
X157480000Y-68580000D03*
X157480000Y-71120000D03*
%TD*%
D10*
%TO.C,J10*%
X157480000Y-121920000D03*
D11*
X157480000Y-124460000D03*
X157480000Y-127000000D03*
X157480000Y-129540000D03*
%TD*%
D14*
%TO.C,J6*%
X79060000Y-59720000D03*
D15*
X79060000Y-52520000D03*
%TD*%
D10*
%TO.C,J1*%
X98320000Y-73660000D03*
D11*
X100860000Y-73660000D03*
X103400000Y-73660000D03*
%TD*%
D10*
%TO.C,J5*%
X157480000Y-58420000D03*
D11*
X157480000Y-60960000D03*
%TD*%
D10*
%TO.C,J8*%
X93980000Y-86360000D03*
D11*
X93980000Y-83820000D03*
X93980000Y-81280000D03*
%TD*%
D10*
%TO.C,J2*%
X93980000Y-96520000D03*
D11*
X93980000Y-99060000D03*
X93980000Y-101600000D03*
%TD*%
D10*
%TO.C,J13*%
X157480000Y-101600000D03*
D11*
X157480000Y-104140000D03*
X157480000Y-106680000D03*
X157480000Y-109220000D03*
X157480000Y-111760000D03*
X157480000Y-114300000D03*
X157480000Y-116840000D03*
%TD*%
D10*
%TO.C,J14*%
X137160000Y-71120000D03*
D11*
X134620000Y-71120000D03*
X132080000Y-71120000D03*
X129540000Y-71120000D03*
%TD*%
D10*
%TO.C,J15*%
X129540000Y-68580000D03*
D11*
X132080000Y-68580000D03*
X134620000Y-68580000D03*
X137160000Y-68580000D03*
%TD*%
D16*
%TO.C,BZ1*%
X135900000Y-109220000D03*
D17*
X143500000Y-109220000D03*
%TD*%
D10*
%TO.C,J7*%
X111760000Y-76200000D03*
D11*
X111760000Y-78740000D03*
X111760000Y-81280000D03*
X111760000Y-83820000D03*
%TD*%
D10*
%TO.C,J9*%
X93980000Y-116840000D03*
D11*
X93980000Y-114300000D03*
X93980000Y-111760000D03*
X93980000Y-109220000D03*
%TD*%
D10*
%TO.C,J11*%
X78000000Y-73660000D03*
D11*
X80540000Y-73660000D03*
X83080000Y-73660000D03*
X85620000Y-73660000D03*
X88160000Y-73660000D03*
X90700000Y-73660000D03*
%TD*%
D10*
%TO.C,J12*%
X157480000Y-93980000D03*
D11*
X157480000Y-91440000D03*
X157480000Y-88900000D03*
X157480000Y-86360000D03*
X157480000Y-83820000D03*
X157480000Y-81280000D03*
X157480000Y-78740000D03*
X157480000Y-76200000D03*
%TD*%
D18*
%TO.C,U1*%
X122047000Y-81580000D03*
X122047000Y-84120000D03*
X122047000Y-86660000D03*
X122047000Y-89200000D03*
X122047000Y-91740000D03*
X122047000Y-94280000D03*
X122047000Y-96820000D03*
X122047000Y-99360000D03*
X122047000Y-101900000D03*
X122047000Y-104440000D03*
X122047000Y-106980000D03*
X122047000Y-109520000D03*
X122047000Y-112060000D03*
X122047000Y-114600000D03*
X122047000Y-117140000D03*
X122047000Y-119680000D03*
X122047000Y-122220000D03*
X122047000Y-124760000D03*
X122047000Y-127300000D03*
X122047000Y-129840000D03*
X106807000Y-129840000D03*
X106807000Y-127300000D03*
X106807000Y-124760000D03*
X106807000Y-122220000D03*
X106807000Y-119680000D03*
X106807000Y-117140000D03*
X106807000Y-114600000D03*
X106807000Y-112060000D03*
X106807000Y-109520000D03*
X106807000Y-106980000D03*
X106807000Y-104440000D03*
X106807000Y-101900000D03*
X106807000Y-99360000D03*
X106807000Y-96820000D03*
X106807000Y-94280000D03*
X106807000Y-91740000D03*
X106807000Y-89200000D03*
X106807000Y-86660000D03*
X106807000Y-84120000D03*
X106807000Y-81580000D03*
D19*
X118110000Y-125603000D03*
D18*
X115570000Y-125603000D03*
X113030000Y-125603000D03*
X110490000Y-125603000D03*
%TD*%
M02*
