%TF.GenerationSoftware,KiCad,Pcbnew,7.0.10-7.0.10~ubuntu22.04.1*%
%TF.CreationDate,2024-01-16T22:39:05+07:00*%
%TF.ProjectId,PCB_Sensor,5043425f-5365-46e7-936f-722e6b696361,rev?*%
%TF.SameCoordinates,Original*%
%TF.FileFunction,Legend,Top*%
%TF.FilePolarity,Positive*%
%FSLAX46Y46*%
G04 Gerber Fmt 4.6, Leading zero omitted, Abs format (unit mm)*
G04 Created by KiCad (PCBNEW 7.0.10-7.0.10~ubuntu22.04.1) date 2024-01-16 22:39:05*
%MOMM*%
%LPD*%
G01*
G04 APERTURE LIST*
%ADD10C,0.150000*%
%ADD11C,0.120000*%
%ADD12C,0.127000*%
G04 APERTURE END LIST*
D10*
X169370476Y-86024819D02*
X169370476Y-86739104D01*
X169370476Y-86739104D02*
X169322857Y-86881961D01*
X169322857Y-86881961D02*
X169227619Y-86977200D01*
X169227619Y-86977200D02*
X169084762Y-87024819D01*
X169084762Y-87024819D02*
X168989524Y-87024819D01*
X169751429Y-86024819D02*
X170370476Y-86024819D01*
X170370476Y-86024819D02*
X170037143Y-86405771D01*
X170037143Y-86405771D02*
X170180000Y-86405771D01*
X170180000Y-86405771D02*
X170275238Y-86453390D01*
X170275238Y-86453390D02*
X170322857Y-86501009D01*
X170322857Y-86501009D02*
X170370476Y-86596247D01*
X170370476Y-86596247D02*
X170370476Y-86834342D01*
X170370476Y-86834342D02*
X170322857Y-86929580D01*
X170322857Y-86929580D02*
X170275238Y-86977200D01*
X170275238Y-86977200D02*
X170180000Y-87024819D01*
X170180000Y-87024819D02*
X169894286Y-87024819D01*
X169894286Y-87024819D02*
X169799048Y-86977200D01*
X169799048Y-86977200D02*
X169751429Y-86929580D01*
X170989524Y-86024819D02*
X171084762Y-86024819D01*
X171084762Y-86024819D02*
X171180000Y-86072438D01*
X171180000Y-86072438D02*
X171227619Y-86120057D01*
X171227619Y-86120057D02*
X171275238Y-86215295D01*
X171275238Y-86215295D02*
X171322857Y-86405771D01*
X171322857Y-86405771D02*
X171322857Y-86643866D01*
X171322857Y-86643866D02*
X171275238Y-86834342D01*
X171275238Y-86834342D02*
X171227619Y-86929580D01*
X171227619Y-86929580D02*
X171180000Y-86977200D01*
X171180000Y-86977200D02*
X171084762Y-87024819D01*
X171084762Y-87024819D02*
X170989524Y-87024819D01*
X170989524Y-87024819D02*
X170894286Y-86977200D01*
X170894286Y-86977200D02*
X170846667Y-86929580D01*
X170846667Y-86929580D02*
X170799048Y-86834342D01*
X170799048Y-86834342D02*
X170751429Y-86643866D01*
X170751429Y-86643866D02*
X170751429Y-86405771D01*
X170751429Y-86405771D02*
X170799048Y-86215295D01*
X170799048Y-86215295D02*
X170846667Y-86120057D01*
X170846667Y-86120057D02*
X170894286Y-86072438D01*
X170894286Y-86072438D02*
X170989524Y-86024819D01*
X169370476Y-98724819D02*
X169370476Y-99439104D01*
X169370476Y-99439104D02*
X169322857Y-99581961D01*
X169322857Y-99581961D02*
X169227619Y-99677200D01*
X169227619Y-99677200D02*
X169084762Y-99724819D01*
X169084762Y-99724819D02*
X168989524Y-99724819D01*
X169799048Y-98820057D02*
X169846667Y-98772438D01*
X169846667Y-98772438D02*
X169941905Y-98724819D01*
X169941905Y-98724819D02*
X170180000Y-98724819D01*
X170180000Y-98724819D02*
X170275238Y-98772438D01*
X170275238Y-98772438D02*
X170322857Y-98820057D01*
X170322857Y-98820057D02*
X170370476Y-98915295D01*
X170370476Y-98915295D02*
X170370476Y-99010533D01*
X170370476Y-99010533D02*
X170322857Y-99153390D01*
X170322857Y-99153390D02*
X169751429Y-99724819D01*
X169751429Y-99724819D02*
X170370476Y-99724819D01*
X170846667Y-99724819D02*
X171037143Y-99724819D01*
X171037143Y-99724819D02*
X171132381Y-99677200D01*
X171132381Y-99677200D02*
X171180000Y-99629580D01*
X171180000Y-99629580D02*
X171275238Y-99486723D01*
X171275238Y-99486723D02*
X171322857Y-99296247D01*
X171322857Y-99296247D02*
X171322857Y-98915295D01*
X171322857Y-98915295D02*
X171275238Y-98820057D01*
X171275238Y-98820057D02*
X171227619Y-98772438D01*
X171227619Y-98772438D02*
X171132381Y-98724819D01*
X171132381Y-98724819D02*
X170941905Y-98724819D01*
X170941905Y-98724819D02*
X170846667Y-98772438D01*
X170846667Y-98772438D02*
X170799048Y-98820057D01*
X170799048Y-98820057D02*
X170751429Y-98915295D01*
X170751429Y-98915295D02*
X170751429Y-99153390D01*
X170751429Y-99153390D02*
X170799048Y-99248628D01*
X170799048Y-99248628D02*
X170846667Y-99296247D01*
X170846667Y-99296247D02*
X170941905Y-99343866D01*
X170941905Y-99343866D02*
X171132381Y-99343866D01*
X171132381Y-99343866D02*
X171227619Y-99296247D01*
X171227619Y-99296247D02*
X171275238Y-99248628D01*
X171275238Y-99248628D02*
X171322857Y-99153390D01*
X169370476Y-73324819D02*
X169370476Y-74039104D01*
X169370476Y-74039104D02*
X169322857Y-74181961D01*
X169322857Y-74181961D02*
X169227619Y-74277200D01*
X169227619Y-74277200D02*
X169084762Y-74324819D01*
X169084762Y-74324819D02*
X168989524Y-74324819D01*
X169799048Y-73420057D02*
X169846667Y-73372438D01*
X169846667Y-73372438D02*
X169941905Y-73324819D01*
X169941905Y-73324819D02*
X170180000Y-73324819D01*
X170180000Y-73324819D02*
X170275238Y-73372438D01*
X170275238Y-73372438D02*
X170322857Y-73420057D01*
X170322857Y-73420057D02*
X170370476Y-73515295D01*
X170370476Y-73515295D02*
X170370476Y-73610533D01*
X170370476Y-73610533D02*
X170322857Y-73753390D01*
X170322857Y-73753390D02*
X169751429Y-74324819D01*
X169751429Y-74324819D02*
X170370476Y-74324819D01*
X170941905Y-73753390D02*
X170846667Y-73705771D01*
X170846667Y-73705771D02*
X170799048Y-73658152D01*
X170799048Y-73658152D02*
X170751429Y-73562914D01*
X170751429Y-73562914D02*
X170751429Y-73515295D01*
X170751429Y-73515295D02*
X170799048Y-73420057D01*
X170799048Y-73420057D02*
X170846667Y-73372438D01*
X170846667Y-73372438D02*
X170941905Y-73324819D01*
X170941905Y-73324819D02*
X171132381Y-73324819D01*
X171132381Y-73324819D02*
X171227619Y-73372438D01*
X171227619Y-73372438D02*
X171275238Y-73420057D01*
X171275238Y-73420057D02*
X171322857Y-73515295D01*
X171322857Y-73515295D02*
X171322857Y-73562914D01*
X171322857Y-73562914D02*
X171275238Y-73658152D01*
X171275238Y-73658152D02*
X171227619Y-73705771D01*
X171227619Y-73705771D02*
X171132381Y-73753390D01*
X171132381Y-73753390D02*
X170941905Y-73753390D01*
X170941905Y-73753390D02*
X170846667Y-73801009D01*
X170846667Y-73801009D02*
X170799048Y-73848628D01*
X170799048Y-73848628D02*
X170751429Y-73943866D01*
X170751429Y-73943866D02*
X170751429Y-74134342D01*
X170751429Y-74134342D02*
X170799048Y-74229580D01*
X170799048Y-74229580D02*
X170846667Y-74277200D01*
X170846667Y-74277200D02*
X170941905Y-74324819D01*
X170941905Y-74324819D02*
X171132381Y-74324819D01*
X171132381Y-74324819D02*
X171227619Y-74277200D01*
X171227619Y-74277200D02*
X171275238Y-74229580D01*
X171275238Y-74229580D02*
X171322857Y-74134342D01*
X171322857Y-74134342D02*
X171322857Y-73943866D01*
X171322857Y-73943866D02*
X171275238Y-73848628D01*
X171275238Y-73848628D02*
X171227619Y-73801009D01*
X171227619Y-73801009D02*
X171132381Y-73753390D01*
X169370476Y-60624819D02*
X169370476Y-61339104D01*
X169370476Y-61339104D02*
X169322857Y-61481961D01*
X169322857Y-61481961D02*
X169227619Y-61577200D01*
X169227619Y-61577200D02*
X169084762Y-61624819D01*
X169084762Y-61624819D02*
X168989524Y-61624819D01*
X169799048Y-60720057D02*
X169846667Y-60672438D01*
X169846667Y-60672438D02*
X169941905Y-60624819D01*
X169941905Y-60624819D02*
X170180000Y-60624819D01*
X170180000Y-60624819D02*
X170275238Y-60672438D01*
X170275238Y-60672438D02*
X170322857Y-60720057D01*
X170322857Y-60720057D02*
X170370476Y-60815295D01*
X170370476Y-60815295D02*
X170370476Y-60910533D01*
X170370476Y-60910533D02*
X170322857Y-61053390D01*
X170322857Y-61053390D02*
X169751429Y-61624819D01*
X169751429Y-61624819D02*
X170370476Y-61624819D01*
X170703810Y-60624819D02*
X171370476Y-60624819D01*
X171370476Y-60624819D02*
X170941905Y-61624819D01*
X68244819Y-145589523D02*
X68959104Y-145589523D01*
X68959104Y-145589523D02*
X69101961Y-145637142D01*
X69101961Y-145637142D02*
X69197200Y-145732380D01*
X69197200Y-145732380D02*
X69244819Y-145875237D01*
X69244819Y-145875237D02*
X69244819Y-145970475D01*
X68340057Y-145160951D02*
X68292438Y-145113332D01*
X68292438Y-145113332D02*
X68244819Y-145018094D01*
X68244819Y-145018094D02*
X68244819Y-144779999D01*
X68244819Y-144779999D02*
X68292438Y-144684761D01*
X68292438Y-144684761D02*
X68340057Y-144637142D01*
X68340057Y-144637142D02*
X68435295Y-144589523D01*
X68435295Y-144589523D02*
X68530533Y-144589523D01*
X68530533Y-144589523D02*
X68673390Y-144637142D01*
X68673390Y-144637142D02*
X69244819Y-145208570D01*
X69244819Y-145208570D02*
X69244819Y-144589523D01*
X68244819Y-143732380D02*
X68244819Y-143922856D01*
X68244819Y-143922856D02*
X68292438Y-144018094D01*
X68292438Y-144018094D02*
X68340057Y-144065713D01*
X68340057Y-144065713D02*
X68482914Y-144160951D01*
X68482914Y-144160951D02*
X68673390Y-144208570D01*
X68673390Y-144208570D02*
X69054342Y-144208570D01*
X69054342Y-144208570D02*
X69149580Y-144160951D01*
X69149580Y-144160951D02*
X69197200Y-144113332D01*
X69197200Y-144113332D02*
X69244819Y-144018094D01*
X69244819Y-144018094D02*
X69244819Y-143827618D01*
X69244819Y-143827618D02*
X69197200Y-143732380D01*
X69197200Y-143732380D02*
X69149580Y-143684761D01*
X69149580Y-143684761D02*
X69054342Y-143637142D01*
X69054342Y-143637142D02*
X68816247Y-143637142D01*
X68816247Y-143637142D02*
X68721009Y-143684761D01*
X68721009Y-143684761D02*
X68673390Y-143732380D01*
X68673390Y-143732380D02*
X68625771Y-143827618D01*
X68625771Y-143827618D02*
X68625771Y-144018094D01*
X68625771Y-144018094D02*
X68673390Y-144113332D01*
X68673390Y-144113332D02*
X68721009Y-144160951D01*
X68721009Y-144160951D02*
X68816247Y-144208570D01*
X80524819Y-36369523D02*
X81239104Y-36369523D01*
X81239104Y-36369523D02*
X81381961Y-36417142D01*
X81381961Y-36417142D02*
X81477200Y-36512380D01*
X81477200Y-36512380D02*
X81524819Y-36655237D01*
X81524819Y-36655237D02*
X81524819Y-36750475D01*
X80620057Y-35940951D02*
X80572438Y-35893332D01*
X80572438Y-35893332D02*
X80524819Y-35798094D01*
X80524819Y-35798094D02*
X80524819Y-35559999D01*
X80524819Y-35559999D02*
X80572438Y-35464761D01*
X80572438Y-35464761D02*
X80620057Y-35417142D01*
X80620057Y-35417142D02*
X80715295Y-35369523D01*
X80715295Y-35369523D02*
X80810533Y-35369523D01*
X80810533Y-35369523D02*
X80953390Y-35417142D01*
X80953390Y-35417142D02*
X81524819Y-35988570D01*
X81524819Y-35988570D02*
X81524819Y-35369523D01*
X80524819Y-34464761D02*
X80524819Y-34940951D01*
X80524819Y-34940951D02*
X81001009Y-34988570D01*
X81001009Y-34988570D02*
X80953390Y-34940951D01*
X80953390Y-34940951D02*
X80905771Y-34845713D01*
X80905771Y-34845713D02*
X80905771Y-34607618D01*
X80905771Y-34607618D02*
X80953390Y-34512380D01*
X80953390Y-34512380D02*
X81001009Y-34464761D01*
X81001009Y-34464761D02*
X81096247Y-34417142D01*
X81096247Y-34417142D02*
X81334342Y-34417142D01*
X81334342Y-34417142D02*
X81429580Y-34464761D01*
X81429580Y-34464761D02*
X81477200Y-34512380D01*
X81477200Y-34512380D02*
X81524819Y-34607618D01*
X81524819Y-34607618D02*
X81524819Y-34845713D01*
X81524819Y-34845713D02*
X81477200Y-34940951D01*
X81477200Y-34940951D02*
X81429580Y-34988570D01*
X152064819Y-145589523D02*
X152779104Y-145589523D01*
X152779104Y-145589523D02*
X152921961Y-145637142D01*
X152921961Y-145637142D02*
X153017200Y-145732380D01*
X153017200Y-145732380D02*
X153064819Y-145875237D01*
X153064819Y-145875237D02*
X153064819Y-145970475D01*
X152160057Y-145160951D02*
X152112438Y-145113332D01*
X152112438Y-145113332D02*
X152064819Y-145018094D01*
X152064819Y-145018094D02*
X152064819Y-144779999D01*
X152064819Y-144779999D02*
X152112438Y-144684761D01*
X152112438Y-144684761D02*
X152160057Y-144637142D01*
X152160057Y-144637142D02*
X152255295Y-144589523D01*
X152255295Y-144589523D02*
X152350533Y-144589523D01*
X152350533Y-144589523D02*
X152493390Y-144637142D01*
X152493390Y-144637142D02*
X153064819Y-145208570D01*
X153064819Y-145208570D02*
X153064819Y-144589523D01*
X152398152Y-143732380D02*
X153064819Y-143732380D01*
X152017200Y-143970475D02*
X152731485Y-144208570D01*
X152731485Y-144208570D02*
X152731485Y-143589523D01*
X164344819Y-36369523D02*
X165059104Y-36369523D01*
X165059104Y-36369523D02*
X165201961Y-36417142D01*
X165201961Y-36417142D02*
X165297200Y-36512380D01*
X165297200Y-36512380D02*
X165344819Y-36655237D01*
X165344819Y-36655237D02*
X165344819Y-36750475D01*
X164440057Y-35940951D02*
X164392438Y-35893332D01*
X164392438Y-35893332D02*
X164344819Y-35798094D01*
X164344819Y-35798094D02*
X164344819Y-35559999D01*
X164344819Y-35559999D02*
X164392438Y-35464761D01*
X164392438Y-35464761D02*
X164440057Y-35417142D01*
X164440057Y-35417142D02*
X164535295Y-35369523D01*
X164535295Y-35369523D02*
X164630533Y-35369523D01*
X164630533Y-35369523D02*
X164773390Y-35417142D01*
X164773390Y-35417142D02*
X165344819Y-35988570D01*
X165344819Y-35988570D02*
X165344819Y-35369523D01*
X164344819Y-35036189D02*
X164344819Y-34417142D01*
X164344819Y-34417142D02*
X164725771Y-34750475D01*
X164725771Y-34750475D02*
X164725771Y-34607618D01*
X164725771Y-34607618D02*
X164773390Y-34512380D01*
X164773390Y-34512380D02*
X164821009Y-34464761D01*
X164821009Y-34464761D02*
X164916247Y-34417142D01*
X164916247Y-34417142D02*
X165154342Y-34417142D01*
X165154342Y-34417142D02*
X165249580Y-34464761D01*
X165249580Y-34464761D02*
X165297200Y-34512380D01*
X165297200Y-34512380D02*
X165344819Y-34607618D01*
X165344819Y-34607618D02*
X165344819Y-34893332D01*
X165344819Y-34893332D02*
X165297200Y-34988570D01*
X165297200Y-34988570D02*
X165249580Y-35036189D01*
X68034819Y-105796191D02*
X68749104Y-105796191D01*
X68749104Y-105796191D02*
X68891961Y-105843810D01*
X68891961Y-105843810D02*
X68987200Y-105939048D01*
X68987200Y-105939048D02*
X69034819Y-106081905D01*
X69034819Y-106081905D02*
X69034819Y-106177143D01*
X68130057Y-105367619D02*
X68082438Y-105320000D01*
X68082438Y-105320000D02*
X68034819Y-105224762D01*
X68034819Y-105224762D02*
X68034819Y-104986667D01*
X68034819Y-104986667D02*
X68082438Y-104891429D01*
X68082438Y-104891429D02*
X68130057Y-104843810D01*
X68130057Y-104843810D02*
X68225295Y-104796191D01*
X68225295Y-104796191D02*
X68320533Y-104796191D01*
X68320533Y-104796191D02*
X68463390Y-104843810D01*
X68463390Y-104843810D02*
X69034819Y-105415238D01*
X69034819Y-105415238D02*
X69034819Y-104796191D01*
X68130057Y-104415238D02*
X68082438Y-104367619D01*
X68082438Y-104367619D02*
X68034819Y-104272381D01*
X68034819Y-104272381D02*
X68034819Y-104034286D01*
X68034819Y-104034286D02*
X68082438Y-103939048D01*
X68082438Y-103939048D02*
X68130057Y-103891429D01*
X68130057Y-103891429D02*
X68225295Y-103843810D01*
X68225295Y-103843810D02*
X68320533Y-103843810D01*
X68320533Y-103843810D02*
X68463390Y-103891429D01*
X68463390Y-103891429D02*
X69034819Y-104462857D01*
X69034819Y-104462857D02*
X69034819Y-103843810D01*
X68034819Y-94789523D02*
X68749104Y-94789523D01*
X68749104Y-94789523D02*
X68891961Y-94837142D01*
X68891961Y-94837142D02*
X68987200Y-94932380D01*
X68987200Y-94932380D02*
X69034819Y-95075237D01*
X69034819Y-95075237D02*
X69034819Y-95170475D01*
X68130057Y-94360951D02*
X68082438Y-94313332D01*
X68082438Y-94313332D02*
X68034819Y-94218094D01*
X68034819Y-94218094D02*
X68034819Y-93979999D01*
X68034819Y-93979999D02*
X68082438Y-93884761D01*
X68082438Y-93884761D02*
X68130057Y-93837142D01*
X68130057Y-93837142D02*
X68225295Y-93789523D01*
X68225295Y-93789523D02*
X68320533Y-93789523D01*
X68320533Y-93789523D02*
X68463390Y-93837142D01*
X68463390Y-93837142D02*
X69034819Y-94408570D01*
X69034819Y-94408570D02*
X69034819Y-93789523D01*
X69034819Y-92837142D02*
X69034819Y-93408570D01*
X69034819Y-93122856D02*
X68034819Y-93122856D01*
X68034819Y-93122856D02*
X68177676Y-93218094D01*
X68177676Y-93218094D02*
X68272914Y-93313332D01*
X68272914Y-93313332D02*
X68320533Y-93408570D01*
X68034819Y-83782857D02*
X68749104Y-83782857D01*
X68749104Y-83782857D02*
X68891961Y-83830476D01*
X68891961Y-83830476D02*
X68987200Y-83925714D01*
X68987200Y-83925714D02*
X69034819Y-84068571D01*
X69034819Y-84068571D02*
X69034819Y-84163809D01*
X68130057Y-83354285D02*
X68082438Y-83306666D01*
X68082438Y-83306666D02*
X68034819Y-83211428D01*
X68034819Y-83211428D02*
X68034819Y-82973333D01*
X68034819Y-82973333D02*
X68082438Y-82878095D01*
X68082438Y-82878095D02*
X68130057Y-82830476D01*
X68130057Y-82830476D02*
X68225295Y-82782857D01*
X68225295Y-82782857D02*
X68320533Y-82782857D01*
X68320533Y-82782857D02*
X68463390Y-82830476D01*
X68463390Y-82830476D02*
X69034819Y-83401904D01*
X69034819Y-83401904D02*
X69034819Y-82782857D01*
X68034819Y-82163809D02*
X68034819Y-82068571D01*
X68034819Y-82068571D02*
X68082438Y-81973333D01*
X68082438Y-81973333D02*
X68130057Y-81925714D01*
X68130057Y-81925714D02*
X68225295Y-81878095D01*
X68225295Y-81878095D02*
X68415771Y-81830476D01*
X68415771Y-81830476D02*
X68653866Y-81830476D01*
X68653866Y-81830476D02*
X68844342Y-81878095D01*
X68844342Y-81878095D02*
X68939580Y-81925714D01*
X68939580Y-81925714D02*
X68987200Y-81973333D01*
X68987200Y-81973333D02*
X69034819Y-82068571D01*
X69034819Y-82068571D02*
X69034819Y-82163809D01*
X69034819Y-82163809D02*
X68987200Y-82259047D01*
X68987200Y-82259047D02*
X68939580Y-82306666D01*
X68939580Y-82306666D02*
X68844342Y-82354285D01*
X68844342Y-82354285D02*
X68653866Y-82401904D01*
X68653866Y-82401904D02*
X68415771Y-82401904D01*
X68415771Y-82401904D02*
X68225295Y-82354285D01*
X68225295Y-82354285D02*
X68130057Y-82306666D01*
X68130057Y-82306666D02*
X68082438Y-82259047D01*
X68082438Y-82259047D02*
X68034819Y-82163809D01*
X57874819Y-41449523D02*
X58589104Y-41449523D01*
X58589104Y-41449523D02*
X58731961Y-41497142D01*
X58731961Y-41497142D02*
X58827200Y-41592380D01*
X58827200Y-41592380D02*
X58874819Y-41735237D01*
X58874819Y-41735237D02*
X58874819Y-41830475D01*
X58874819Y-40449523D02*
X58874819Y-41020951D01*
X58874819Y-40735237D02*
X57874819Y-40735237D01*
X57874819Y-40735237D02*
X58017676Y-40830475D01*
X58017676Y-40830475D02*
X58112914Y-40925713D01*
X58112914Y-40925713D02*
X58160533Y-41020951D01*
X58874819Y-39973332D02*
X58874819Y-39782856D01*
X58874819Y-39782856D02*
X58827200Y-39687618D01*
X58827200Y-39687618D02*
X58779580Y-39639999D01*
X58779580Y-39639999D02*
X58636723Y-39544761D01*
X58636723Y-39544761D02*
X58446247Y-39497142D01*
X58446247Y-39497142D02*
X58065295Y-39497142D01*
X58065295Y-39497142D02*
X57970057Y-39544761D01*
X57970057Y-39544761D02*
X57922438Y-39592380D01*
X57922438Y-39592380D02*
X57874819Y-39687618D01*
X57874819Y-39687618D02*
X57874819Y-39878094D01*
X57874819Y-39878094D02*
X57922438Y-39973332D01*
X57922438Y-39973332D02*
X57970057Y-40020951D01*
X57970057Y-40020951D02*
X58065295Y-40068570D01*
X58065295Y-40068570D02*
X58303390Y-40068570D01*
X58303390Y-40068570D02*
X58398628Y-40020951D01*
X58398628Y-40020951D02*
X58446247Y-39973332D01*
X58446247Y-39973332D02*
X58493866Y-39878094D01*
X58493866Y-39878094D02*
X58493866Y-39687618D01*
X58493866Y-39687618D02*
X58446247Y-39592380D01*
X58446247Y-39592380D02*
X58398628Y-39544761D01*
X58398628Y-39544761D02*
X58303390Y-39497142D01*
X164554819Y-140509523D02*
X165269104Y-140509523D01*
X165269104Y-140509523D02*
X165411961Y-140557142D01*
X165411961Y-140557142D02*
X165507200Y-140652380D01*
X165507200Y-140652380D02*
X165554819Y-140795237D01*
X165554819Y-140795237D02*
X165554819Y-140890475D01*
X165554819Y-139509523D02*
X165554819Y-140080951D01*
X165554819Y-139795237D02*
X164554819Y-139795237D01*
X164554819Y-139795237D02*
X164697676Y-139890475D01*
X164697676Y-139890475D02*
X164792914Y-139985713D01*
X164792914Y-139985713D02*
X164840533Y-140080951D01*
X164983390Y-138938094D02*
X164935771Y-139033332D01*
X164935771Y-139033332D02*
X164888152Y-139080951D01*
X164888152Y-139080951D02*
X164792914Y-139128570D01*
X164792914Y-139128570D02*
X164745295Y-139128570D01*
X164745295Y-139128570D02*
X164650057Y-139080951D01*
X164650057Y-139080951D02*
X164602438Y-139033332D01*
X164602438Y-139033332D02*
X164554819Y-138938094D01*
X164554819Y-138938094D02*
X164554819Y-138747618D01*
X164554819Y-138747618D02*
X164602438Y-138652380D01*
X164602438Y-138652380D02*
X164650057Y-138604761D01*
X164650057Y-138604761D02*
X164745295Y-138557142D01*
X164745295Y-138557142D02*
X164792914Y-138557142D01*
X164792914Y-138557142D02*
X164888152Y-138604761D01*
X164888152Y-138604761D02*
X164935771Y-138652380D01*
X164935771Y-138652380D02*
X164983390Y-138747618D01*
X164983390Y-138747618D02*
X164983390Y-138938094D01*
X164983390Y-138938094D02*
X165031009Y-139033332D01*
X165031009Y-139033332D02*
X165078628Y-139080951D01*
X165078628Y-139080951D02*
X165173866Y-139128570D01*
X165173866Y-139128570D02*
X165364342Y-139128570D01*
X165364342Y-139128570D02*
X165459580Y-139080951D01*
X165459580Y-139080951D02*
X165507200Y-139033332D01*
X165507200Y-139033332D02*
X165554819Y-138938094D01*
X165554819Y-138938094D02*
X165554819Y-138747618D01*
X165554819Y-138747618D02*
X165507200Y-138652380D01*
X165507200Y-138652380D02*
X165459580Y-138604761D01*
X165459580Y-138604761D02*
X165364342Y-138557142D01*
X165364342Y-138557142D02*
X165173866Y-138557142D01*
X165173866Y-138557142D02*
X165078628Y-138604761D01*
X165078628Y-138604761D02*
X165031009Y-138652380D01*
X165031009Y-138652380D02*
X164983390Y-138747618D01*
X164554819Y-41449523D02*
X165269104Y-41449523D01*
X165269104Y-41449523D02*
X165411961Y-41497142D01*
X165411961Y-41497142D02*
X165507200Y-41592380D01*
X165507200Y-41592380D02*
X165554819Y-41735237D01*
X165554819Y-41735237D02*
X165554819Y-41830475D01*
X165554819Y-40449523D02*
X165554819Y-41020951D01*
X165554819Y-40735237D02*
X164554819Y-40735237D01*
X164554819Y-40735237D02*
X164697676Y-40830475D01*
X164697676Y-40830475D02*
X164792914Y-40925713D01*
X164792914Y-40925713D02*
X164840533Y-41020951D01*
X164554819Y-40116189D02*
X164554819Y-39449523D01*
X164554819Y-39449523D02*
X165554819Y-39878094D01*
X57874819Y-140509523D02*
X58589104Y-140509523D01*
X58589104Y-140509523D02*
X58731961Y-140557142D01*
X58731961Y-140557142D02*
X58827200Y-140652380D01*
X58827200Y-140652380D02*
X58874819Y-140795237D01*
X58874819Y-140795237D02*
X58874819Y-140890475D01*
X58874819Y-139509523D02*
X58874819Y-140080951D01*
X58874819Y-139795237D02*
X57874819Y-139795237D01*
X57874819Y-139795237D02*
X58017676Y-139890475D01*
X58017676Y-139890475D02*
X58112914Y-139985713D01*
X58112914Y-139985713D02*
X58160533Y-140080951D01*
X57874819Y-138652380D02*
X57874819Y-138842856D01*
X57874819Y-138842856D02*
X57922438Y-138938094D01*
X57922438Y-138938094D02*
X57970057Y-138985713D01*
X57970057Y-138985713D02*
X58112914Y-139080951D01*
X58112914Y-139080951D02*
X58303390Y-139128570D01*
X58303390Y-139128570D02*
X58684342Y-139128570D01*
X58684342Y-139128570D02*
X58779580Y-139080951D01*
X58779580Y-139080951D02*
X58827200Y-139033332D01*
X58827200Y-139033332D02*
X58874819Y-138938094D01*
X58874819Y-138938094D02*
X58874819Y-138747618D01*
X58874819Y-138747618D02*
X58827200Y-138652380D01*
X58827200Y-138652380D02*
X58779580Y-138604761D01*
X58779580Y-138604761D02*
X58684342Y-138557142D01*
X58684342Y-138557142D02*
X58446247Y-138557142D01*
X58446247Y-138557142D02*
X58351009Y-138604761D01*
X58351009Y-138604761D02*
X58303390Y-138652380D01*
X58303390Y-138652380D02*
X58255771Y-138747618D01*
X58255771Y-138747618D02*
X58255771Y-138938094D01*
X58255771Y-138938094D02*
X58303390Y-139033332D01*
X58303390Y-139033332D02*
X58351009Y-139080951D01*
X58351009Y-139080951D02*
X58446247Y-139128570D01*
X68034819Y-72300001D02*
X68749104Y-72300001D01*
X68749104Y-72300001D02*
X68891961Y-72347620D01*
X68891961Y-72347620D02*
X68987200Y-72442858D01*
X68987200Y-72442858D02*
X69034819Y-72585715D01*
X69034819Y-72585715D02*
X69034819Y-72680953D01*
X68034819Y-71919048D02*
X68034819Y-71300001D01*
X68034819Y-71300001D02*
X68415771Y-71633334D01*
X68415771Y-71633334D02*
X68415771Y-71490477D01*
X68415771Y-71490477D02*
X68463390Y-71395239D01*
X68463390Y-71395239D02*
X68511009Y-71347620D01*
X68511009Y-71347620D02*
X68606247Y-71300001D01*
X68606247Y-71300001D02*
X68844342Y-71300001D01*
X68844342Y-71300001D02*
X68939580Y-71347620D01*
X68939580Y-71347620D02*
X68987200Y-71395239D01*
X68987200Y-71395239D02*
X69034819Y-71490477D01*
X69034819Y-71490477D02*
X69034819Y-71776191D01*
X69034819Y-71776191D02*
X68987200Y-71871429D01*
X68987200Y-71871429D02*
X68939580Y-71919048D01*
X157146666Y-63164819D02*
X157146666Y-63879104D01*
X157146666Y-63879104D02*
X157099047Y-64021961D01*
X157099047Y-64021961D02*
X157003809Y-64117200D01*
X157003809Y-64117200D02*
X156860952Y-64164819D01*
X156860952Y-64164819D02*
X156765714Y-64164819D01*
X158051428Y-63498152D02*
X158051428Y-64164819D01*
X157813333Y-63117200D02*
X157575238Y-63831485D01*
X157575238Y-63831485D02*
X158194285Y-63831485D01*
X151590476Y-113964819D02*
X151590476Y-114679104D01*
X151590476Y-114679104D02*
X151542857Y-114821961D01*
X151542857Y-114821961D02*
X151447619Y-114917200D01*
X151447619Y-114917200D02*
X151304762Y-114964819D01*
X151304762Y-114964819D02*
X151209524Y-114964819D01*
X152590476Y-114964819D02*
X152019048Y-114964819D01*
X152304762Y-114964819D02*
X152304762Y-113964819D01*
X152304762Y-113964819D02*
X152209524Y-114107676D01*
X152209524Y-114107676D02*
X152114286Y-114202914D01*
X152114286Y-114202914D02*
X152019048Y-114250533D01*
X153209524Y-113964819D02*
X153304762Y-113964819D01*
X153304762Y-113964819D02*
X153400000Y-114012438D01*
X153400000Y-114012438D02*
X153447619Y-114060057D01*
X153447619Y-114060057D02*
X153495238Y-114155295D01*
X153495238Y-114155295D02*
X153542857Y-114345771D01*
X153542857Y-114345771D02*
X153542857Y-114583866D01*
X153542857Y-114583866D02*
X153495238Y-114774342D01*
X153495238Y-114774342D02*
X153447619Y-114869580D01*
X153447619Y-114869580D02*
X153400000Y-114917200D01*
X153400000Y-114917200D02*
X153304762Y-114964819D01*
X153304762Y-114964819D02*
X153209524Y-114964819D01*
X153209524Y-114964819D02*
X153114286Y-114917200D01*
X153114286Y-114917200D02*
X153066667Y-114869580D01*
X153066667Y-114869580D02*
X153019048Y-114774342D01*
X153019048Y-114774342D02*
X152971429Y-114583866D01*
X152971429Y-114583866D02*
X152971429Y-114345771D01*
X152971429Y-114345771D02*
X153019048Y-114155295D01*
X153019048Y-114155295D02*
X153066667Y-114060057D01*
X153066667Y-114060057D02*
X153114286Y-114012438D01*
X153114286Y-114012438D02*
X153209524Y-113964819D01*
X99883333Y-82454819D02*
X99550000Y-81978628D01*
X99311905Y-82454819D02*
X99311905Y-81454819D01*
X99311905Y-81454819D02*
X99692857Y-81454819D01*
X99692857Y-81454819D02*
X99788095Y-81502438D01*
X99788095Y-81502438D02*
X99835714Y-81550057D01*
X99835714Y-81550057D02*
X99883333Y-81645295D01*
X99883333Y-81645295D02*
X99883333Y-81788152D01*
X99883333Y-81788152D02*
X99835714Y-81883390D01*
X99835714Y-81883390D02*
X99788095Y-81931009D01*
X99788095Y-81931009D02*
X99692857Y-81978628D01*
X99692857Y-81978628D02*
X99311905Y-81978628D01*
X100264286Y-81550057D02*
X100311905Y-81502438D01*
X100311905Y-81502438D02*
X100407143Y-81454819D01*
X100407143Y-81454819D02*
X100645238Y-81454819D01*
X100645238Y-81454819D02*
X100740476Y-81502438D01*
X100740476Y-81502438D02*
X100788095Y-81550057D01*
X100788095Y-81550057D02*
X100835714Y-81645295D01*
X100835714Y-81645295D02*
X100835714Y-81740533D01*
X100835714Y-81740533D02*
X100788095Y-81883390D01*
X100788095Y-81883390D02*
X100216667Y-82454819D01*
X100216667Y-82454819D02*
X100835714Y-82454819D01*
X84449819Y-50148333D02*
X85164104Y-50148333D01*
X85164104Y-50148333D02*
X85306961Y-50195952D01*
X85306961Y-50195952D02*
X85402200Y-50291190D01*
X85402200Y-50291190D02*
X85449819Y-50434047D01*
X85449819Y-50434047D02*
X85449819Y-50529285D01*
X84449819Y-49243571D02*
X84449819Y-49434047D01*
X84449819Y-49434047D02*
X84497438Y-49529285D01*
X84497438Y-49529285D02*
X84545057Y-49576904D01*
X84545057Y-49576904D02*
X84687914Y-49672142D01*
X84687914Y-49672142D02*
X84878390Y-49719761D01*
X84878390Y-49719761D02*
X85259342Y-49719761D01*
X85259342Y-49719761D02*
X85354580Y-49672142D01*
X85354580Y-49672142D02*
X85402200Y-49624523D01*
X85402200Y-49624523D02*
X85449819Y-49529285D01*
X85449819Y-49529285D02*
X85449819Y-49338809D01*
X85449819Y-49338809D02*
X85402200Y-49243571D01*
X85402200Y-49243571D02*
X85354580Y-49195952D01*
X85354580Y-49195952D02*
X85259342Y-49148333D01*
X85259342Y-49148333D02*
X85021247Y-49148333D01*
X85021247Y-49148333D02*
X84926009Y-49195952D01*
X84926009Y-49195952D02*
X84878390Y-49243571D01*
X84878390Y-49243571D02*
X84830771Y-49338809D01*
X84830771Y-49338809D02*
X84830771Y-49529285D01*
X84830771Y-49529285D02*
X84878390Y-49624523D01*
X84878390Y-49624523D02*
X84926009Y-49672142D01*
X84926009Y-49672142D02*
X85021247Y-49719761D01*
X95444819Y-73993333D02*
X96159104Y-73993333D01*
X96159104Y-73993333D02*
X96301961Y-74040952D01*
X96301961Y-74040952D02*
X96397200Y-74136190D01*
X96397200Y-74136190D02*
X96444819Y-74279047D01*
X96444819Y-74279047D02*
X96444819Y-74374285D01*
X96444819Y-72993333D02*
X96444819Y-73564761D01*
X96444819Y-73279047D02*
X95444819Y-73279047D01*
X95444819Y-73279047D02*
X95587676Y-73374285D01*
X95587676Y-73374285D02*
X95682914Y-73469523D01*
X95682914Y-73469523D02*
X95730533Y-73564761D01*
X157146666Y-55544819D02*
X157146666Y-56259104D01*
X157146666Y-56259104D02*
X157099047Y-56401961D01*
X157099047Y-56401961D02*
X157003809Y-56497200D01*
X157003809Y-56497200D02*
X156860952Y-56544819D01*
X156860952Y-56544819D02*
X156765714Y-56544819D01*
X158099047Y-55544819D02*
X157622857Y-55544819D01*
X157622857Y-55544819D02*
X157575238Y-56021009D01*
X157575238Y-56021009D02*
X157622857Y-55973390D01*
X157622857Y-55973390D02*
X157718095Y-55925771D01*
X157718095Y-55925771D02*
X157956190Y-55925771D01*
X157956190Y-55925771D02*
X158051428Y-55973390D01*
X158051428Y-55973390D02*
X158099047Y-56021009D01*
X158099047Y-56021009D02*
X158146666Y-56116247D01*
X158146666Y-56116247D02*
X158146666Y-56354342D01*
X158146666Y-56354342D02*
X158099047Y-56449580D01*
X158099047Y-56449580D02*
X158051428Y-56497200D01*
X158051428Y-56497200D02*
X157956190Y-56544819D01*
X157956190Y-56544819D02*
X157718095Y-56544819D01*
X157718095Y-56544819D02*
X157622857Y-56497200D01*
X157622857Y-56497200D02*
X157575238Y-56449580D01*
X87566667Y-123657200D02*
X87709524Y-123704819D01*
X87709524Y-123704819D02*
X87947619Y-123704819D01*
X87947619Y-123704819D02*
X88042857Y-123657200D01*
X88042857Y-123657200D02*
X88090476Y-123609580D01*
X88090476Y-123609580D02*
X88138095Y-123514342D01*
X88138095Y-123514342D02*
X88138095Y-123419104D01*
X88138095Y-123419104D02*
X88090476Y-123323866D01*
X88090476Y-123323866D02*
X88042857Y-123276247D01*
X88042857Y-123276247D02*
X87947619Y-123228628D01*
X87947619Y-123228628D02*
X87757143Y-123181009D01*
X87757143Y-123181009D02*
X87661905Y-123133390D01*
X87661905Y-123133390D02*
X87614286Y-123085771D01*
X87614286Y-123085771D02*
X87566667Y-122990533D01*
X87566667Y-122990533D02*
X87566667Y-122895295D01*
X87566667Y-122895295D02*
X87614286Y-122800057D01*
X87614286Y-122800057D02*
X87661905Y-122752438D01*
X87661905Y-122752438D02*
X87757143Y-122704819D01*
X87757143Y-122704819D02*
X87995238Y-122704819D01*
X87995238Y-122704819D02*
X88138095Y-122752438D01*
X88471429Y-122704819D02*
X88709524Y-123704819D01*
X88709524Y-123704819D02*
X88900000Y-122990533D01*
X88900000Y-122990533D02*
X89090476Y-123704819D01*
X89090476Y-123704819D02*
X89328572Y-122704819D01*
X90138095Y-123038152D02*
X90138095Y-123704819D01*
X89900000Y-122657200D02*
X89661905Y-123371485D01*
X89661905Y-123371485D02*
X90280952Y-123371485D01*
X134206667Y-123657200D02*
X134349524Y-123704819D01*
X134349524Y-123704819D02*
X134587619Y-123704819D01*
X134587619Y-123704819D02*
X134682857Y-123657200D01*
X134682857Y-123657200D02*
X134730476Y-123609580D01*
X134730476Y-123609580D02*
X134778095Y-123514342D01*
X134778095Y-123514342D02*
X134778095Y-123419104D01*
X134778095Y-123419104D02*
X134730476Y-123323866D01*
X134730476Y-123323866D02*
X134682857Y-123276247D01*
X134682857Y-123276247D02*
X134587619Y-123228628D01*
X134587619Y-123228628D02*
X134397143Y-123181009D01*
X134397143Y-123181009D02*
X134301905Y-123133390D01*
X134301905Y-123133390D02*
X134254286Y-123085771D01*
X134254286Y-123085771D02*
X134206667Y-122990533D01*
X134206667Y-122990533D02*
X134206667Y-122895295D01*
X134206667Y-122895295D02*
X134254286Y-122800057D01*
X134254286Y-122800057D02*
X134301905Y-122752438D01*
X134301905Y-122752438D02*
X134397143Y-122704819D01*
X134397143Y-122704819D02*
X134635238Y-122704819D01*
X134635238Y-122704819D02*
X134778095Y-122752438D01*
X135111429Y-122704819D02*
X135349524Y-123704819D01*
X135349524Y-123704819D02*
X135540000Y-122990533D01*
X135540000Y-122990533D02*
X135730476Y-123704819D01*
X135730476Y-123704819D02*
X135968572Y-122704819D01*
X136301905Y-122800057D02*
X136349524Y-122752438D01*
X136349524Y-122752438D02*
X136444762Y-122704819D01*
X136444762Y-122704819D02*
X136682857Y-122704819D01*
X136682857Y-122704819D02*
X136778095Y-122752438D01*
X136778095Y-122752438D02*
X136825714Y-122800057D01*
X136825714Y-122800057D02*
X136873333Y-122895295D01*
X136873333Y-122895295D02*
X136873333Y-122990533D01*
X136873333Y-122990533D02*
X136825714Y-123133390D01*
X136825714Y-123133390D02*
X136254286Y-123704819D01*
X136254286Y-123704819D02*
X136873333Y-123704819D01*
X103973333Y-47959580D02*
X103925714Y-48007200D01*
X103925714Y-48007200D02*
X103782857Y-48054819D01*
X103782857Y-48054819D02*
X103687619Y-48054819D01*
X103687619Y-48054819D02*
X103544762Y-48007200D01*
X103544762Y-48007200D02*
X103449524Y-47911961D01*
X103449524Y-47911961D02*
X103401905Y-47816723D01*
X103401905Y-47816723D02*
X103354286Y-47626247D01*
X103354286Y-47626247D02*
X103354286Y-47483390D01*
X103354286Y-47483390D02*
X103401905Y-47292914D01*
X103401905Y-47292914D02*
X103449524Y-47197676D01*
X103449524Y-47197676D02*
X103544762Y-47102438D01*
X103544762Y-47102438D02*
X103687619Y-47054819D01*
X103687619Y-47054819D02*
X103782857Y-47054819D01*
X103782857Y-47054819D02*
X103925714Y-47102438D01*
X103925714Y-47102438D02*
X103973333Y-47150057D01*
X104925714Y-48054819D02*
X104354286Y-48054819D01*
X104640000Y-48054819D02*
X104640000Y-47054819D01*
X104640000Y-47054819D02*
X104544762Y-47197676D01*
X104544762Y-47197676D02*
X104449524Y-47292914D01*
X104449524Y-47292914D02*
X104354286Y-47340533D01*
X93646666Y-88144819D02*
X93646666Y-88859104D01*
X93646666Y-88859104D02*
X93599047Y-89001961D01*
X93599047Y-89001961D02*
X93503809Y-89097200D01*
X93503809Y-89097200D02*
X93360952Y-89144819D01*
X93360952Y-89144819D02*
X93265714Y-89144819D01*
X94265714Y-88573390D02*
X94170476Y-88525771D01*
X94170476Y-88525771D02*
X94122857Y-88478152D01*
X94122857Y-88478152D02*
X94075238Y-88382914D01*
X94075238Y-88382914D02*
X94075238Y-88335295D01*
X94075238Y-88335295D02*
X94122857Y-88240057D01*
X94122857Y-88240057D02*
X94170476Y-88192438D01*
X94170476Y-88192438D02*
X94265714Y-88144819D01*
X94265714Y-88144819D02*
X94456190Y-88144819D01*
X94456190Y-88144819D02*
X94551428Y-88192438D01*
X94551428Y-88192438D02*
X94599047Y-88240057D01*
X94599047Y-88240057D02*
X94646666Y-88335295D01*
X94646666Y-88335295D02*
X94646666Y-88382914D01*
X94646666Y-88382914D02*
X94599047Y-88478152D01*
X94599047Y-88478152D02*
X94551428Y-88525771D01*
X94551428Y-88525771D02*
X94456190Y-88573390D01*
X94456190Y-88573390D02*
X94265714Y-88573390D01*
X94265714Y-88573390D02*
X94170476Y-88621009D01*
X94170476Y-88621009D02*
X94122857Y-88668628D01*
X94122857Y-88668628D02*
X94075238Y-88763866D01*
X94075238Y-88763866D02*
X94075238Y-88954342D01*
X94075238Y-88954342D02*
X94122857Y-89049580D01*
X94122857Y-89049580D02*
X94170476Y-89097200D01*
X94170476Y-89097200D02*
X94265714Y-89144819D01*
X94265714Y-89144819D02*
X94456190Y-89144819D01*
X94456190Y-89144819D02*
X94551428Y-89097200D01*
X94551428Y-89097200D02*
X94599047Y-89049580D01*
X94599047Y-89049580D02*
X94646666Y-88954342D01*
X94646666Y-88954342D02*
X94646666Y-88763866D01*
X94646666Y-88763866D02*
X94599047Y-88668628D01*
X94599047Y-88668628D02*
X94551428Y-88621009D01*
X94551428Y-88621009D02*
X94456190Y-88573390D01*
X93646666Y-93644819D02*
X93646666Y-94359104D01*
X93646666Y-94359104D02*
X93599047Y-94501961D01*
X93599047Y-94501961D02*
X93503809Y-94597200D01*
X93503809Y-94597200D02*
X93360952Y-94644819D01*
X93360952Y-94644819D02*
X93265714Y-94644819D01*
X94075238Y-93740057D02*
X94122857Y-93692438D01*
X94122857Y-93692438D02*
X94218095Y-93644819D01*
X94218095Y-93644819D02*
X94456190Y-93644819D01*
X94456190Y-93644819D02*
X94551428Y-93692438D01*
X94551428Y-93692438D02*
X94599047Y-93740057D01*
X94599047Y-93740057D02*
X94646666Y-93835295D01*
X94646666Y-93835295D02*
X94646666Y-93930533D01*
X94646666Y-93930533D02*
X94599047Y-94073390D01*
X94599047Y-94073390D02*
X94027619Y-94644819D01*
X94027619Y-94644819D02*
X94646666Y-94644819D01*
X145073333Y-129924580D02*
X145025714Y-129972200D01*
X145025714Y-129972200D02*
X144882857Y-130019819D01*
X144882857Y-130019819D02*
X144787619Y-130019819D01*
X144787619Y-130019819D02*
X144644762Y-129972200D01*
X144644762Y-129972200D02*
X144549524Y-129876961D01*
X144549524Y-129876961D02*
X144501905Y-129781723D01*
X144501905Y-129781723D02*
X144454286Y-129591247D01*
X144454286Y-129591247D02*
X144454286Y-129448390D01*
X144454286Y-129448390D02*
X144501905Y-129257914D01*
X144501905Y-129257914D02*
X144549524Y-129162676D01*
X144549524Y-129162676D02*
X144644762Y-129067438D01*
X144644762Y-129067438D02*
X144787619Y-129019819D01*
X144787619Y-129019819D02*
X144882857Y-129019819D01*
X144882857Y-129019819D02*
X145025714Y-129067438D01*
X145025714Y-129067438D02*
X145073333Y-129115057D01*
X145406667Y-129019819D02*
X146025714Y-129019819D01*
X146025714Y-129019819D02*
X145692381Y-129400771D01*
X145692381Y-129400771D02*
X145835238Y-129400771D01*
X145835238Y-129400771D02*
X145930476Y-129448390D01*
X145930476Y-129448390D02*
X145978095Y-129496009D01*
X145978095Y-129496009D02*
X146025714Y-129591247D01*
X146025714Y-129591247D02*
X146025714Y-129829342D01*
X146025714Y-129829342D02*
X145978095Y-129924580D01*
X145978095Y-129924580D02*
X145930476Y-129972200D01*
X145930476Y-129972200D02*
X145835238Y-130019819D01*
X145835238Y-130019819D02*
X145549524Y-130019819D01*
X145549524Y-130019819D02*
X145454286Y-129972200D01*
X145454286Y-129972200D02*
X145406667Y-129924580D01*
X156670476Y-98724819D02*
X156670476Y-99439104D01*
X156670476Y-99439104D02*
X156622857Y-99581961D01*
X156622857Y-99581961D02*
X156527619Y-99677200D01*
X156527619Y-99677200D02*
X156384762Y-99724819D01*
X156384762Y-99724819D02*
X156289524Y-99724819D01*
X157670476Y-99724819D02*
X157099048Y-99724819D01*
X157384762Y-99724819D02*
X157384762Y-98724819D01*
X157384762Y-98724819D02*
X157289524Y-98867676D01*
X157289524Y-98867676D02*
X157194286Y-98962914D01*
X157194286Y-98962914D02*
X157099048Y-99010533D01*
X158003810Y-98724819D02*
X158622857Y-98724819D01*
X158622857Y-98724819D02*
X158289524Y-99105771D01*
X158289524Y-99105771D02*
X158432381Y-99105771D01*
X158432381Y-99105771D02*
X158527619Y-99153390D01*
X158527619Y-99153390D02*
X158575238Y-99201009D01*
X158575238Y-99201009D02*
X158622857Y-99296247D01*
X158622857Y-99296247D02*
X158622857Y-99534342D01*
X158622857Y-99534342D02*
X158575238Y-99629580D01*
X158575238Y-99629580D02*
X158527619Y-99677200D01*
X158527619Y-99677200D02*
X158432381Y-99724819D01*
X158432381Y-99724819D02*
X158146667Y-99724819D01*
X158146667Y-99724819D02*
X158051429Y-99677200D01*
X158051429Y-99677200D02*
X158003810Y-99629580D01*
X129870833Y-82034819D02*
X129537500Y-81558628D01*
X129299405Y-82034819D02*
X129299405Y-81034819D01*
X129299405Y-81034819D02*
X129680357Y-81034819D01*
X129680357Y-81034819D02*
X129775595Y-81082438D01*
X129775595Y-81082438D02*
X129823214Y-81130057D01*
X129823214Y-81130057D02*
X129870833Y-81225295D01*
X129870833Y-81225295D02*
X129870833Y-81368152D01*
X129870833Y-81368152D02*
X129823214Y-81463390D01*
X129823214Y-81463390D02*
X129775595Y-81511009D01*
X129775595Y-81511009D02*
X129680357Y-81558628D01*
X129680357Y-81558628D02*
X129299405Y-81558628D01*
X130727976Y-81034819D02*
X130537500Y-81034819D01*
X130537500Y-81034819D02*
X130442262Y-81082438D01*
X130442262Y-81082438D02*
X130394643Y-81130057D01*
X130394643Y-81130057D02*
X130299405Y-81272914D01*
X130299405Y-81272914D02*
X130251786Y-81463390D01*
X130251786Y-81463390D02*
X130251786Y-81844342D01*
X130251786Y-81844342D02*
X130299405Y-81939580D01*
X130299405Y-81939580D02*
X130347024Y-81987200D01*
X130347024Y-81987200D02*
X130442262Y-82034819D01*
X130442262Y-82034819D02*
X130632738Y-82034819D01*
X130632738Y-82034819D02*
X130727976Y-81987200D01*
X130727976Y-81987200D02*
X130775595Y-81939580D01*
X130775595Y-81939580D02*
X130823214Y-81844342D01*
X130823214Y-81844342D02*
X130823214Y-81606247D01*
X130823214Y-81606247D02*
X130775595Y-81511009D01*
X130775595Y-81511009D02*
X130727976Y-81463390D01*
X130727976Y-81463390D02*
X130632738Y-81415771D01*
X130632738Y-81415771D02*
X130442262Y-81415771D01*
X130442262Y-81415771D02*
X130347024Y-81463390D01*
X130347024Y-81463390D02*
X130299405Y-81511009D01*
X130299405Y-81511009D02*
X130251786Y-81606247D01*
X135373333Y-129924580D02*
X135325714Y-129972200D01*
X135325714Y-129972200D02*
X135182857Y-130019819D01*
X135182857Y-130019819D02*
X135087619Y-130019819D01*
X135087619Y-130019819D02*
X134944762Y-129972200D01*
X134944762Y-129972200D02*
X134849524Y-129876961D01*
X134849524Y-129876961D02*
X134801905Y-129781723D01*
X134801905Y-129781723D02*
X134754286Y-129591247D01*
X134754286Y-129591247D02*
X134754286Y-129448390D01*
X134754286Y-129448390D02*
X134801905Y-129257914D01*
X134801905Y-129257914D02*
X134849524Y-129162676D01*
X134849524Y-129162676D02*
X134944762Y-129067438D01*
X134944762Y-129067438D02*
X135087619Y-129019819D01*
X135087619Y-129019819D02*
X135182857Y-129019819D01*
X135182857Y-129019819D02*
X135325714Y-129067438D01*
X135325714Y-129067438D02*
X135373333Y-129115057D01*
X136230476Y-129353152D02*
X136230476Y-130019819D01*
X135992381Y-128972200D02*
X135754286Y-129686485D01*
X135754286Y-129686485D02*
X136373333Y-129686485D01*
X126454819Y-71929523D02*
X127169104Y-71929523D01*
X127169104Y-71929523D02*
X127311961Y-71977142D01*
X127311961Y-71977142D02*
X127407200Y-72072380D01*
X127407200Y-72072380D02*
X127454819Y-72215237D01*
X127454819Y-72215237D02*
X127454819Y-72310475D01*
X127454819Y-70929523D02*
X127454819Y-71500951D01*
X127454819Y-71215237D02*
X126454819Y-71215237D01*
X126454819Y-71215237D02*
X126597676Y-71310475D01*
X126597676Y-71310475D02*
X126692914Y-71405713D01*
X126692914Y-71405713D02*
X126740533Y-71500951D01*
X126788152Y-70072380D02*
X127454819Y-70072380D01*
X126407200Y-70310475D02*
X127121485Y-70548570D01*
X127121485Y-70548570D02*
X127121485Y-69929523D01*
X126454819Y-69389523D02*
X127169104Y-69389523D01*
X127169104Y-69389523D02*
X127311961Y-69437142D01*
X127311961Y-69437142D02*
X127407200Y-69532380D01*
X127407200Y-69532380D02*
X127454819Y-69675237D01*
X127454819Y-69675237D02*
X127454819Y-69770475D01*
X127454819Y-68389523D02*
X127454819Y-68960951D01*
X127454819Y-68675237D02*
X126454819Y-68675237D01*
X126454819Y-68675237D02*
X126597676Y-68770475D01*
X126597676Y-68770475D02*
X126692914Y-68865713D01*
X126692914Y-68865713D02*
X126740533Y-68960951D01*
X126454819Y-67484761D02*
X126454819Y-67960951D01*
X126454819Y-67960951D02*
X126931009Y-68008570D01*
X126931009Y-68008570D02*
X126883390Y-67960951D01*
X126883390Y-67960951D02*
X126835771Y-67865713D01*
X126835771Y-67865713D02*
X126835771Y-67627618D01*
X126835771Y-67627618D02*
X126883390Y-67532380D01*
X126883390Y-67532380D02*
X126931009Y-67484761D01*
X126931009Y-67484761D02*
X127026247Y-67437142D01*
X127026247Y-67437142D02*
X127264342Y-67437142D01*
X127264342Y-67437142D02*
X127359580Y-67484761D01*
X127359580Y-67484761D02*
X127407200Y-67532380D01*
X127407200Y-67532380D02*
X127454819Y-67627618D01*
X127454819Y-67627618D02*
X127454819Y-67865713D01*
X127454819Y-67865713D02*
X127407200Y-67960951D01*
X127407200Y-67960951D02*
X127359580Y-68008570D01*
X138829047Y-100261009D02*
X138971904Y-100308628D01*
X138971904Y-100308628D02*
X139019523Y-100356247D01*
X139019523Y-100356247D02*
X139067142Y-100451485D01*
X139067142Y-100451485D02*
X139067142Y-100594342D01*
X139067142Y-100594342D02*
X139019523Y-100689580D01*
X139019523Y-100689580D02*
X138971904Y-100737200D01*
X138971904Y-100737200D02*
X138876666Y-100784819D01*
X138876666Y-100784819D02*
X138495714Y-100784819D01*
X138495714Y-100784819D02*
X138495714Y-99784819D01*
X138495714Y-99784819D02*
X138829047Y-99784819D01*
X138829047Y-99784819D02*
X138924285Y-99832438D01*
X138924285Y-99832438D02*
X138971904Y-99880057D01*
X138971904Y-99880057D02*
X139019523Y-99975295D01*
X139019523Y-99975295D02*
X139019523Y-100070533D01*
X139019523Y-100070533D02*
X138971904Y-100165771D01*
X138971904Y-100165771D02*
X138924285Y-100213390D01*
X138924285Y-100213390D02*
X138829047Y-100261009D01*
X138829047Y-100261009D02*
X138495714Y-100261009D01*
X139400476Y-99784819D02*
X140067142Y-99784819D01*
X140067142Y-99784819D02*
X139400476Y-100784819D01*
X139400476Y-100784819D02*
X140067142Y-100784819D01*
X140971904Y-100784819D02*
X140400476Y-100784819D01*
X140686190Y-100784819D02*
X140686190Y-99784819D01*
X140686190Y-99784819D02*
X140590952Y-99927676D01*
X140590952Y-99927676D02*
X140495714Y-100022914D01*
X140495714Y-100022914D02*
X140400476Y-100070533D01*
X135509048Y-106753866D02*
X136270953Y-106753866D01*
X135890000Y-107134819D02*
X135890000Y-106372914D01*
X129870833Y-90914819D02*
X129537500Y-90438628D01*
X129299405Y-90914819D02*
X129299405Y-89914819D01*
X129299405Y-89914819D02*
X129680357Y-89914819D01*
X129680357Y-89914819D02*
X129775595Y-89962438D01*
X129775595Y-89962438D02*
X129823214Y-90010057D01*
X129823214Y-90010057D02*
X129870833Y-90105295D01*
X129870833Y-90105295D02*
X129870833Y-90248152D01*
X129870833Y-90248152D02*
X129823214Y-90343390D01*
X129823214Y-90343390D02*
X129775595Y-90391009D01*
X129775595Y-90391009D02*
X129680357Y-90438628D01*
X129680357Y-90438628D02*
X129299405Y-90438628D01*
X130823214Y-90914819D02*
X130251786Y-90914819D01*
X130537500Y-90914819D02*
X130537500Y-89914819D01*
X130537500Y-89914819D02*
X130442262Y-90057676D01*
X130442262Y-90057676D02*
X130347024Y-90152914D01*
X130347024Y-90152914D02*
X130251786Y-90200533D01*
X92478095Y-57534819D02*
X92478095Y-58344342D01*
X92478095Y-58344342D02*
X92525714Y-58439580D01*
X92525714Y-58439580D02*
X92573333Y-58487200D01*
X92573333Y-58487200D02*
X92668571Y-58534819D01*
X92668571Y-58534819D02*
X92859047Y-58534819D01*
X92859047Y-58534819D02*
X92954285Y-58487200D01*
X92954285Y-58487200D02*
X93001904Y-58439580D01*
X93001904Y-58439580D02*
X93049523Y-58344342D01*
X93049523Y-58344342D02*
X93049523Y-57534819D01*
X93478095Y-57630057D02*
X93525714Y-57582438D01*
X93525714Y-57582438D02*
X93620952Y-57534819D01*
X93620952Y-57534819D02*
X93859047Y-57534819D01*
X93859047Y-57534819D02*
X93954285Y-57582438D01*
X93954285Y-57582438D02*
X94001904Y-57630057D01*
X94001904Y-57630057D02*
X94049523Y-57725295D01*
X94049523Y-57725295D02*
X94049523Y-57820533D01*
X94049523Y-57820533D02*
X94001904Y-57963390D01*
X94001904Y-57963390D02*
X93430476Y-58534819D01*
X93430476Y-58534819D02*
X94049523Y-58534819D01*
X111426666Y-73324819D02*
X111426666Y-74039104D01*
X111426666Y-74039104D02*
X111379047Y-74181961D01*
X111379047Y-74181961D02*
X111283809Y-74277200D01*
X111283809Y-74277200D02*
X111140952Y-74324819D01*
X111140952Y-74324819D02*
X111045714Y-74324819D01*
X111807619Y-73324819D02*
X112474285Y-73324819D01*
X112474285Y-73324819D02*
X112045714Y-74324819D01*
X93646666Y-118624819D02*
X93646666Y-119339104D01*
X93646666Y-119339104D02*
X93599047Y-119481961D01*
X93599047Y-119481961D02*
X93503809Y-119577200D01*
X93503809Y-119577200D02*
X93360952Y-119624819D01*
X93360952Y-119624819D02*
X93265714Y-119624819D01*
X94170476Y-119624819D02*
X94360952Y-119624819D01*
X94360952Y-119624819D02*
X94456190Y-119577200D01*
X94456190Y-119577200D02*
X94503809Y-119529580D01*
X94503809Y-119529580D02*
X94599047Y-119386723D01*
X94599047Y-119386723D02*
X94646666Y-119196247D01*
X94646666Y-119196247D02*
X94646666Y-118815295D01*
X94646666Y-118815295D02*
X94599047Y-118720057D01*
X94599047Y-118720057D02*
X94551428Y-118672438D01*
X94551428Y-118672438D02*
X94456190Y-118624819D01*
X94456190Y-118624819D02*
X94265714Y-118624819D01*
X94265714Y-118624819D02*
X94170476Y-118672438D01*
X94170476Y-118672438D02*
X94122857Y-118720057D01*
X94122857Y-118720057D02*
X94075238Y-118815295D01*
X94075238Y-118815295D02*
X94075238Y-119053390D01*
X94075238Y-119053390D02*
X94122857Y-119148628D01*
X94122857Y-119148628D02*
X94170476Y-119196247D01*
X94170476Y-119196247D02*
X94265714Y-119243866D01*
X94265714Y-119243866D02*
X94456190Y-119243866D01*
X94456190Y-119243866D02*
X94551428Y-119196247D01*
X94551428Y-119196247D02*
X94599047Y-119148628D01*
X94599047Y-119148628D02*
X94646666Y-119053390D01*
X129870833Y-84994819D02*
X129537500Y-84518628D01*
X129299405Y-84994819D02*
X129299405Y-83994819D01*
X129299405Y-83994819D02*
X129680357Y-83994819D01*
X129680357Y-83994819D02*
X129775595Y-84042438D01*
X129775595Y-84042438D02*
X129823214Y-84090057D01*
X129823214Y-84090057D02*
X129870833Y-84185295D01*
X129870833Y-84185295D02*
X129870833Y-84328152D01*
X129870833Y-84328152D02*
X129823214Y-84423390D01*
X129823214Y-84423390D02*
X129775595Y-84471009D01*
X129775595Y-84471009D02*
X129680357Y-84518628D01*
X129680357Y-84518628D02*
X129299405Y-84518628D01*
X130775595Y-83994819D02*
X130299405Y-83994819D01*
X130299405Y-83994819D02*
X130251786Y-84471009D01*
X130251786Y-84471009D02*
X130299405Y-84423390D01*
X130299405Y-84423390D02*
X130394643Y-84375771D01*
X130394643Y-84375771D02*
X130632738Y-84375771D01*
X130632738Y-84375771D02*
X130727976Y-84423390D01*
X130727976Y-84423390D02*
X130775595Y-84471009D01*
X130775595Y-84471009D02*
X130823214Y-84566247D01*
X130823214Y-84566247D02*
X130823214Y-84804342D01*
X130823214Y-84804342D02*
X130775595Y-84899580D01*
X130775595Y-84899580D02*
X130727976Y-84947200D01*
X130727976Y-84947200D02*
X130632738Y-84994819D01*
X130632738Y-84994819D02*
X130394643Y-84994819D01*
X130394643Y-84994819D02*
X130299405Y-84947200D01*
X130299405Y-84947200D02*
X130251786Y-84899580D01*
X77406667Y-123657200D02*
X77549524Y-123704819D01*
X77549524Y-123704819D02*
X77787619Y-123704819D01*
X77787619Y-123704819D02*
X77882857Y-123657200D01*
X77882857Y-123657200D02*
X77930476Y-123609580D01*
X77930476Y-123609580D02*
X77978095Y-123514342D01*
X77978095Y-123514342D02*
X77978095Y-123419104D01*
X77978095Y-123419104D02*
X77930476Y-123323866D01*
X77930476Y-123323866D02*
X77882857Y-123276247D01*
X77882857Y-123276247D02*
X77787619Y-123228628D01*
X77787619Y-123228628D02*
X77597143Y-123181009D01*
X77597143Y-123181009D02*
X77501905Y-123133390D01*
X77501905Y-123133390D02*
X77454286Y-123085771D01*
X77454286Y-123085771D02*
X77406667Y-122990533D01*
X77406667Y-122990533D02*
X77406667Y-122895295D01*
X77406667Y-122895295D02*
X77454286Y-122800057D01*
X77454286Y-122800057D02*
X77501905Y-122752438D01*
X77501905Y-122752438D02*
X77597143Y-122704819D01*
X77597143Y-122704819D02*
X77835238Y-122704819D01*
X77835238Y-122704819D02*
X77978095Y-122752438D01*
X78311429Y-122704819D02*
X78549524Y-123704819D01*
X78549524Y-123704819D02*
X78740000Y-122990533D01*
X78740000Y-122990533D02*
X78930476Y-123704819D01*
X78930476Y-123704819D02*
X79168572Y-122704819D01*
X79454286Y-122704819D02*
X80073333Y-122704819D01*
X80073333Y-122704819D02*
X79740000Y-123085771D01*
X79740000Y-123085771D02*
X79882857Y-123085771D01*
X79882857Y-123085771D02*
X79978095Y-123133390D01*
X79978095Y-123133390D02*
X80025714Y-123181009D01*
X80025714Y-123181009D02*
X80073333Y-123276247D01*
X80073333Y-123276247D02*
X80073333Y-123514342D01*
X80073333Y-123514342D02*
X80025714Y-123609580D01*
X80025714Y-123609580D02*
X79978095Y-123657200D01*
X79978095Y-123657200D02*
X79882857Y-123704819D01*
X79882857Y-123704819D02*
X79597143Y-123704819D01*
X79597143Y-123704819D02*
X79501905Y-123657200D01*
X79501905Y-123657200D02*
X79454286Y-123609580D01*
X78573333Y-129924580D02*
X78525714Y-129972200D01*
X78525714Y-129972200D02*
X78382857Y-130019819D01*
X78382857Y-130019819D02*
X78287619Y-130019819D01*
X78287619Y-130019819D02*
X78144762Y-129972200D01*
X78144762Y-129972200D02*
X78049524Y-129876961D01*
X78049524Y-129876961D02*
X78001905Y-129781723D01*
X78001905Y-129781723D02*
X77954286Y-129591247D01*
X77954286Y-129591247D02*
X77954286Y-129448390D01*
X77954286Y-129448390D02*
X78001905Y-129257914D01*
X78001905Y-129257914D02*
X78049524Y-129162676D01*
X78049524Y-129162676D02*
X78144762Y-129067438D01*
X78144762Y-129067438D02*
X78287619Y-129019819D01*
X78287619Y-129019819D02*
X78382857Y-129019819D01*
X78382857Y-129019819D02*
X78525714Y-129067438D01*
X78525714Y-129067438D02*
X78573333Y-129115057D01*
X79478095Y-129019819D02*
X79001905Y-129019819D01*
X79001905Y-129019819D02*
X78954286Y-129496009D01*
X78954286Y-129496009D02*
X79001905Y-129448390D01*
X79001905Y-129448390D02*
X79097143Y-129400771D01*
X79097143Y-129400771D02*
X79335238Y-129400771D01*
X79335238Y-129400771D02*
X79430476Y-129448390D01*
X79430476Y-129448390D02*
X79478095Y-129496009D01*
X79478095Y-129496009D02*
X79525714Y-129591247D01*
X79525714Y-129591247D02*
X79525714Y-129829342D01*
X79525714Y-129829342D02*
X79478095Y-129924580D01*
X79478095Y-129924580D02*
X79430476Y-129972200D01*
X79430476Y-129972200D02*
X79335238Y-130019819D01*
X79335238Y-130019819D02*
X79097143Y-130019819D01*
X79097143Y-130019819D02*
X79001905Y-129972200D01*
X79001905Y-129972200D02*
X78954286Y-129924580D01*
X75124819Y-74469523D02*
X75839104Y-74469523D01*
X75839104Y-74469523D02*
X75981961Y-74517142D01*
X75981961Y-74517142D02*
X76077200Y-74612380D01*
X76077200Y-74612380D02*
X76124819Y-74755237D01*
X76124819Y-74755237D02*
X76124819Y-74850475D01*
X76124819Y-73469523D02*
X76124819Y-74040951D01*
X76124819Y-73755237D02*
X75124819Y-73755237D01*
X75124819Y-73755237D02*
X75267676Y-73850475D01*
X75267676Y-73850475D02*
X75362914Y-73945713D01*
X75362914Y-73945713D02*
X75410533Y-74040951D01*
X76124819Y-72517142D02*
X76124819Y-73088570D01*
X76124819Y-72802856D02*
X75124819Y-72802856D01*
X75124819Y-72802856D02*
X75267676Y-72898094D01*
X75267676Y-72898094D02*
X75362914Y-72993332D01*
X75362914Y-72993332D02*
X75410533Y-73088570D01*
X103973333Y-55579580D02*
X103925714Y-55627200D01*
X103925714Y-55627200D02*
X103782857Y-55674819D01*
X103782857Y-55674819D02*
X103687619Y-55674819D01*
X103687619Y-55674819D02*
X103544762Y-55627200D01*
X103544762Y-55627200D02*
X103449524Y-55531961D01*
X103449524Y-55531961D02*
X103401905Y-55436723D01*
X103401905Y-55436723D02*
X103354286Y-55246247D01*
X103354286Y-55246247D02*
X103354286Y-55103390D01*
X103354286Y-55103390D02*
X103401905Y-54912914D01*
X103401905Y-54912914D02*
X103449524Y-54817676D01*
X103449524Y-54817676D02*
X103544762Y-54722438D01*
X103544762Y-54722438D02*
X103687619Y-54674819D01*
X103687619Y-54674819D02*
X103782857Y-54674819D01*
X103782857Y-54674819D02*
X103925714Y-54722438D01*
X103925714Y-54722438D02*
X103973333Y-54770057D01*
X104354286Y-54770057D02*
X104401905Y-54722438D01*
X104401905Y-54722438D02*
X104497143Y-54674819D01*
X104497143Y-54674819D02*
X104735238Y-54674819D01*
X104735238Y-54674819D02*
X104830476Y-54722438D01*
X104830476Y-54722438D02*
X104878095Y-54770057D01*
X104878095Y-54770057D02*
X104925714Y-54865295D01*
X104925714Y-54865295D02*
X104925714Y-54960533D01*
X104925714Y-54960533D02*
X104878095Y-55103390D01*
X104878095Y-55103390D02*
X104306667Y-55674819D01*
X104306667Y-55674819D02*
X104925714Y-55674819D01*
X146558095Y-91714819D02*
X146558095Y-92524342D01*
X146558095Y-92524342D02*
X146605714Y-92619580D01*
X146605714Y-92619580D02*
X146653333Y-92667200D01*
X146653333Y-92667200D02*
X146748571Y-92714819D01*
X146748571Y-92714819D02*
X146939047Y-92714819D01*
X146939047Y-92714819D02*
X147034285Y-92667200D01*
X147034285Y-92667200D02*
X147081904Y-92619580D01*
X147081904Y-92619580D02*
X147129523Y-92524342D01*
X147129523Y-92524342D02*
X147129523Y-91714819D01*
X147510476Y-91714819D02*
X148129523Y-91714819D01*
X148129523Y-91714819D02*
X147796190Y-92095771D01*
X147796190Y-92095771D02*
X147939047Y-92095771D01*
X147939047Y-92095771D02*
X148034285Y-92143390D01*
X148034285Y-92143390D02*
X148081904Y-92191009D01*
X148081904Y-92191009D02*
X148129523Y-92286247D01*
X148129523Y-92286247D02*
X148129523Y-92524342D01*
X148129523Y-92524342D02*
X148081904Y-92619580D01*
X148081904Y-92619580D02*
X148034285Y-92667200D01*
X148034285Y-92667200D02*
X147939047Y-92714819D01*
X147939047Y-92714819D02*
X147653333Y-92714819D01*
X147653333Y-92714819D02*
X147558095Y-92667200D01*
X147558095Y-92667200D02*
X147510476Y-92619580D01*
X129870833Y-87954819D02*
X129537500Y-87478628D01*
X129299405Y-87954819D02*
X129299405Y-86954819D01*
X129299405Y-86954819D02*
X129680357Y-86954819D01*
X129680357Y-86954819D02*
X129775595Y-87002438D01*
X129775595Y-87002438D02*
X129823214Y-87050057D01*
X129823214Y-87050057D02*
X129870833Y-87145295D01*
X129870833Y-87145295D02*
X129870833Y-87288152D01*
X129870833Y-87288152D02*
X129823214Y-87383390D01*
X129823214Y-87383390D02*
X129775595Y-87431009D01*
X129775595Y-87431009D02*
X129680357Y-87478628D01*
X129680357Y-87478628D02*
X129299405Y-87478628D01*
X130727976Y-87288152D02*
X130727976Y-87954819D01*
X130489881Y-86907200D02*
X130251786Y-87621485D01*
X130251786Y-87621485D02*
X130870833Y-87621485D01*
X135369405Y-84969819D02*
X135369405Y-83969819D01*
X135369405Y-83969819D02*
X135607500Y-83969819D01*
X135607500Y-83969819D02*
X135750357Y-84017438D01*
X135750357Y-84017438D02*
X135845595Y-84112676D01*
X135845595Y-84112676D02*
X135893214Y-84207914D01*
X135893214Y-84207914D02*
X135940833Y-84398390D01*
X135940833Y-84398390D02*
X135940833Y-84541247D01*
X135940833Y-84541247D02*
X135893214Y-84731723D01*
X135893214Y-84731723D02*
X135845595Y-84826961D01*
X135845595Y-84826961D02*
X135750357Y-84922200D01*
X135750357Y-84922200D02*
X135607500Y-84969819D01*
X135607500Y-84969819D02*
X135369405Y-84969819D01*
X136274167Y-83969819D02*
X136893214Y-83969819D01*
X136893214Y-83969819D02*
X136559881Y-84350771D01*
X136559881Y-84350771D02*
X136702738Y-84350771D01*
X136702738Y-84350771D02*
X136797976Y-84398390D01*
X136797976Y-84398390D02*
X136845595Y-84446009D01*
X136845595Y-84446009D02*
X136893214Y-84541247D01*
X136893214Y-84541247D02*
X136893214Y-84779342D01*
X136893214Y-84779342D02*
X136845595Y-84874580D01*
X136845595Y-84874580D02*
X136797976Y-84922200D01*
X136797976Y-84922200D02*
X136702738Y-84969819D01*
X136702738Y-84969819D02*
X136417024Y-84969819D01*
X136417024Y-84969819D02*
X136321786Y-84922200D01*
X136321786Y-84922200D02*
X136274167Y-84874580D01*
X88733333Y-129924580D02*
X88685714Y-129972200D01*
X88685714Y-129972200D02*
X88542857Y-130019819D01*
X88542857Y-130019819D02*
X88447619Y-130019819D01*
X88447619Y-130019819D02*
X88304762Y-129972200D01*
X88304762Y-129972200D02*
X88209524Y-129876961D01*
X88209524Y-129876961D02*
X88161905Y-129781723D01*
X88161905Y-129781723D02*
X88114286Y-129591247D01*
X88114286Y-129591247D02*
X88114286Y-129448390D01*
X88114286Y-129448390D02*
X88161905Y-129257914D01*
X88161905Y-129257914D02*
X88209524Y-129162676D01*
X88209524Y-129162676D02*
X88304762Y-129067438D01*
X88304762Y-129067438D02*
X88447619Y-129019819D01*
X88447619Y-129019819D02*
X88542857Y-129019819D01*
X88542857Y-129019819D02*
X88685714Y-129067438D01*
X88685714Y-129067438D02*
X88733333Y-129115057D01*
X89590476Y-129019819D02*
X89400000Y-129019819D01*
X89400000Y-129019819D02*
X89304762Y-129067438D01*
X89304762Y-129067438D02*
X89257143Y-129115057D01*
X89257143Y-129115057D02*
X89161905Y-129257914D01*
X89161905Y-129257914D02*
X89114286Y-129448390D01*
X89114286Y-129448390D02*
X89114286Y-129829342D01*
X89114286Y-129829342D02*
X89161905Y-129924580D01*
X89161905Y-129924580D02*
X89209524Y-129972200D01*
X89209524Y-129972200D02*
X89304762Y-130019819D01*
X89304762Y-130019819D02*
X89495238Y-130019819D01*
X89495238Y-130019819D02*
X89590476Y-129972200D01*
X89590476Y-129972200D02*
X89638095Y-129924580D01*
X89638095Y-129924580D02*
X89685714Y-129829342D01*
X89685714Y-129829342D02*
X89685714Y-129591247D01*
X89685714Y-129591247D02*
X89638095Y-129496009D01*
X89638095Y-129496009D02*
X89590476Y-129448390D01*
X89590476Y-129448390D02*
X89495238Y-129400771D01*
X89495238Y-129400771D02*
X89304762Y-129400771D01*
X89304762Y-129400771D02*
X89209524Y-129448390D01*
X89209524Y-129448390D02*
X89161905Y-129496009D01*
X89161905Y-129496009D02*
X89114286Y-129591247D01*
X135369405Y-90889819D02*
X135369405Y-89889819D01*
X135369405Y-89889819D02*
X135607500Y-89889819D01*
X135607500Y-89889819D02*
X135750357Y-89937438D01*
X135750357Y-89937438D02*
X135845595Y-90032676D01*
X135845595Y-90032676D02*
X135893214Y-90127914D01*
X135893214Y-90127914D02*
X135940833Y-90318390D01*
X135940833Y-90318390D02*
X135940833Y-90461247D01*
X135940833Y-90461247D02*
X135893214Y-90651723D01*
X135893214Y-90651723D02*
X135845595Y-90746961D01*
X135845595Y-90746961D02*
X135750357Y-90842200D01*
X135750357Y-90842200D02*
X135607500Y-90889819D01*
X135607500Y-90889819D02*
X135369405Y-90889819D01*
X136893214Y-90889819D02*
X136321786Y-90889819D01*
X136607500Y-90889819D02*
X136607500Y-89889819D01*
X136607500Y-89889819D02*
X136512262Y-90032676D01*
X136512262Y-90032676D02*
X136417024Y-90127914D01*
X136417024Y-90127914D02*
X136321786Y-90175533D01*
X143906667Y-123657200D02*
X144049524Y-123704819D01*
X144049524Y-123704819D02*
X144287619Y-123704819D01*
X144287619Y-123704819D02*
X144382857Y-123657200D01*
X144382857Y-123657200D02*
X144430476Y-123609580D01*
X144430476Y-123609580D02*
X144478095Y-123514342D01*
X144478095Y-123514342D02*
X144478095Y-123419104D01*
X144478095Y-123419104D02*
X144430476Y-123323866D01*
X144430476Y-123323866D02*
X144382857Y-123276247D01*
X144382857Y-123276247D02*
X144287619Y-123228628D01*
X144287619Y-123228628D02*
X144097143Y-123181009D01*
X144097143Y-123181009D02*
X144001905Y-123133390D01*
X144001905Y-123133390D02*
X143954286Y-123085771D01*
X143954286Y-123085771D02*
X143906667Y-122990533D01*
X143906667Y-122990533D02*
X143906667Y-122895295D01*
X143906667Y-122895295D02*
X143954286Y-122800057D01*
X143954286Y-122800057D02*
X144001905Y-122752438D01*
X144001905Y-122752438D02*
X144097143Y-122704819D01*
X144097143Y-122704819D02*
X144335238Y-122704819D01*
X144335238Y-122704819D02*
X144478095Y-122752438D01*
X144811429Y-122704819D02*
X145049524Y-123704819D01*
X145049524Y-123704819D02*
X145240000Y-122990533D01*
X145240000Y-122990533D02*
X145430476Y-123704819D01*
X145430476Y-123704819D02*
X145668572Y-122704819D01*
X146573333Y-123704819D02*
X146001905Y-123704819D01*
X146287619Y-123704819D02*
X146287619Y-122704819D01*
X146287619Y-122704819D02*
X146192381Y-122847676D01*
X146192381Y-122847676D02*
X146097143Y-122942914D01*
X146097143Y-122942914D02*
X146001905Y-122990533D01*
X156670476Y-95764819D02*
X156670476Y-96479104D01*
X156670476Y-96479104D02*
X156622857Y-96621961D01*
X156622857Y-96621961D02*
X156527619Y-96717200D01*
X156527619Y-96717200D02*
X156384762Y-96764819D01*
X156384762Y-96764819D02*
X156289524Y-96764819D01*
X157670476Y-96764819D02*
X157099048Y-96764819D01*
X157384762Y-96764819D02*
X157384762Y-95764819D01*
X157384762Y-95764819D02*
X157289524Y-95907676D01*
X157289524Y-95907676D02*
X157194286Y-96002914D01*
X157194286Y-96002914D02*
X157099048Y-96050533D01*
X158051429Y-95860057D02*
X158099048Y-95812438D01*
X158099048Y-95812438D02*
X158194286Y-95764819D01*
X158194286Y-95764819D02*
X158432381Y-95764819D01*
X158432381Y-95764819D02*
X158527619Y-95812438D01*
X158527619Y-95812438D02*
X158575238Y-95860057D01*
X158575238Y-95860057D02*
X158622857Y-95955295D01*
X158622857Y-95955295D02*
X158622857Y-96050533D01*
X158622857Y-96050533D02*
X158575238Y-96193390D01*
X158575238Y-96193390D02*
X158003810Y-96764819D01*
X158003810Y-96764819D02*
X158622857Y-96764819D01*
X135369405Y-82009819D02*
X135369405Y-81009819D01*
X135369405Y-81009819D02*
X135607500Y-81009819D01*
X135607500Y-81009819D02*
X135750357Y-81057438D01*
X135750357Y-81057438D02*
X135845595Y-81152676D01*
X135845595Y-81152676D02*
X135893214Y-81247914D01*
X135893214Y-81247914D02*
X135940833Y-81438390D01*
X135940833Y-81438390D02*
X135940833Y-81581247D01*
X135940833Y-81581247D02*
X135893214Y-81771723D01*
X135893214Y-81771723D02*
X135845595Y-81866961D01*
X135845595Y-81866961D02*
X135750357Y-81962200D01*
X135750357Y-81962200D02*
X135607500Y-82009819D01*
X135607500Y-82009819D02*
X135369405Y-82009819D01*
X136797976Y-81343152D02*
X136797976Y-82009819D01*
X136559881Y-80962200D02*
X136321786Y-81676485D01*
X136321786Y-81676485D02*
X136940833Y-81676485D01*
X99883333Y-79194819D02*
X99550000Y-78718628D01*
X99311905Y-79194819D02*
X99311905Y-78194819D01*
X99311905Y-78194819D02*
X99692857Y-78194819D01*
X99692857Y-78194819D02*
X99788095Y-78242438D01*
X99788095Y-78242438D02*
X99835714Y-78290057D01*
X99835714Y-78290057D02*
X99883333Y-78385295D01*
X99883333Y-78385295D02*
X99883333Y-78528152D01*
X99883333Y-78528152D02*
X99835714Y-78623390D01*
X99835714Y-78623390D02*
X99788095Y-78671009D01*
X99788095Y-78671009D02*
X99692857Y-78718628D01*
X99692857Y-78718628D02*
X99311905Y-78718628D01*
X100216667Y-78194819D02*
X100835714Y-78194819D01*
X100835714Y-78194819D02*
X100502381Y-78575771D01*
X100502381Y-78575771D02*
X100645238Y-78575771D01*
X100645238Y-78575771D02*
X100740476Y-78623390D01*
X100740476Y-78623390D02*
X100788095Y-78671009D01*
X100788095Y-78671009D02*
X100835714Y-78766247D01*
X100835714Y-78766247D02*
X100835714Y-79004342D01*
X100835714Y-79004342D02*
X100788095Y-79099580D01*
X100788095Y-79099580D02*
X100740476Y-79147200D01*
X100740476Y-79147200D02*
X100645238Y-79194819D01*
X100645238Y-79194819D02*
X100359524Y-79194819D01*
X100359524Y-79194819D02*
X100264286Y-79147200D01*
X100264286Y-79147200D02*
X100216667Y-79099580D01*
X135369405Y-87929819D02*
X135369405Y-86929819D01*
X135369405Y-86929819D02*
X135607500Y-86929819D01*
X135607500Y-86929819D02*
X135750357Y-86977438D01*
X135750357Y-86977438D02*
X135845595Y-87072676D01*
X135845595Y-87072676D02*
X135893214Y-87167914D01*
X135893214Y-87167914D02*
X135940833Y-87358390D01*
X135940833Y-87358390D02*
X135940833Y-87501247D01*
X135940833Y-87501247D02*
X135893214Y-87691723D01*
X135893214Y-87691723D02*
X135845595Y-87786961D01*
X135845595Y-87786961D02*
X135750357Y-87882200D01*
X135750357Y-87882200D02*
X135607500Y-87929819D01*
X135607500Y-87929819D02*
X135369405Y-87929819D01*
X136321786Y-87025057D02*
X136369405Y-86977438D01*
X136369405Y-86977438D02*
X136464643Y-86929819D01*
X136464643Y-86929819D02*
X136702738Y-86929819D01*
X136702738Y-86929819D02*
X136797976Y-86977438D01*
X136797976Y-86977438D02*
X136845595Y-87025057D01*
X136845595Y-87025057D02*
X136893214Y-87120295D01*
X136893214Y-87120295D02*
X136893214Y-87215533D01*
X136893214Y-87215533D02*
X136845595Y-87358390D01*
X136845595Y-87358390D02*
X136274167Y-87929819D01*
X136274167Y-87929819D02*
X136893214Y-87929819D01*
D11*
%TO.C,J30*%
X171510000Y-90170000D02*
X171510000Y-97850000D01*
X168850000Y-88900000D02*
X168850000Y-87570000D01*
X168850000Y-97850000D02*
X171510000Y-97850000D01*
X168850000Y-90170000D02*
X171510000Y-90170000D01*
X168850000Y-87570000D02*
X170180000Y-87570000D01*
X168850000Y-90170000D02*
X168850000Y-97850000D01*
%TO.C,J29*%
X171510000Y-102870000D02*
X171510000Y-110550000D01*
X168850000Y-101600000D02*
X168850000Y-100270000D01*
X168850000Y-110550000D02*
X171510000Y-110550000D01*
X168850000Y-102870000D02*
X171510000Y-102870000D01*
X168850000Y-100270000D02*
X170180000Y-100270000D01*
X168850000Y-102870000D02*
X168850000Y-110550000D01*
%TO.C,J28*%
X171510000Y-77470000D02*
X171510000Y-85150000D01*
X168850000Y-76200000D02*
X168850000Y-74870000D01*
X168850000Y-85150000D02*
X171510000Y-85150000D01*
X168850000Y-77470000D02*
X171510000Y-77470000D01*
X168850000Y-74870000D02*
X170180000Y-74870000D01*
X168850000Y-77470000D02*
X168850000Y-85150000D01*
%TO.C,J27*%
X171510000Y-64770000D02*
X171510000Y-72450000D01*
X168850000Y-63500000D02*
X168850000Y-62170000D01*
X168850000Y-72450000D02*
X171510000Y-72450000D01*
X168850000Y-64770000D02*
X171510000Y-64770000D01*
X168850000Y-62170000D02*
X170180000Y-62170000D01*
X168850000Y-64770000D02*
X168850000Y-72450000D01*
%TO.C,J26*%
X72390000Y-143450000D02*
X80070000Y-143450000D01*
X71120000Y-146110000D02*
X69790000Y-146110000D01*
X80070000Y-146110000D02*
X80070000Y-143450000D01*
X72390000Y-146110000D02*
X72390000Y-143450000D01*
X69790000Y-146110000D02*
X69790000Y-144780000D01*
X72390000Y-146110000D02*
X80070000Y-146110000D01*
%TO.C,J25*%
X77470000Y-36890000D02*
X69790000Y-36890000D01*
X78740000Y-34230000D02*
X80070000Y-34230000D01*
X69790000Y-34230000D02*
X69790000Y-36890000D01*
X77470000Y-34230000D02*
X77470000Y-36890000D01*
X80070000Y-34230000D02*
X80070000Y-35560000D01*
X77470000Y-34230000D02*
X69790000Y-34230000D01*
%TO.C,J24*%
X156210000Y-143450000D02*
X163890000Y-143450000D01*
X154940000Y-146110000D02*
X153610000Y-146110000D01*
X163890000Y-146110000D02*
X163890000Y-143450000D01*
X156210000Y-146110000D02*
X156210000Y-143450000D01*
X153610000Y-146110000D02*
X153610000Y-144780000D01*
X156210000Y-146110000D02*
X163890000Y-146110000D01*
%TO.C,J23*%
X161290000Y-36890000D02*
X153610000Y-36890000D01*
X162560000Y-34230000D02*
X163890000Y-34230000D01*
X153610000Y-34230000D02*
X153610000Y-36890000D01*
X161290000Y-34230000D02*
X161290000Y-36890000D01*
X163890000Y-34230000D02*
X163890000Y-35560000D01*
X161290000Y-34230000D02*
X153610000Y-34230000D01*
%TO.C,J22*%
X59690000Y-99906668D02*
X59690000Y-110066668D01*
X67310000Y-110066668D02*
X67310000Y-99906668D01*
X66040000Y-99906668D02*
X66040000Y-110066668D01*
X67310000Y-99906668D02*
X59690000Y-99906668D01*
X59690000Y-110066668D02*
X67310000Y-110066668D01*
%TO.C,J21*%
X59690000Y-88900000D02*
X59690000Y-99060000D01*
X67310000Y-99060000D02*
X67310000Y-88900000D01*
X66040000Y-88900000D02*
X66040000Y-99060000D01*
X67310000Y-88900000D02*
X59690000Y-88900000D01*
X59690000Y-99060000D02*
X67310000Y-99060000D01*
%TO.C,J20*%
X59690000Y-77893334D02*
X59690000Y-88053334D01*
X67310000Y-88053334D02*
X67310000Y-77893334D01*
X66040000Y-77893334D02*
X66040000Y-88053334D01*
X67310000Y-77893334D02*
X59690000Y-77893334D01*
X59690000Y-88053334D02*
X67310000Y-88053334D01*
%TO.C,J19*%
X59690000Y-45720000D02*
X67310000Y-45720000D01*
X67310000Y-35560000D02*
X59690000Y-35560000D01*
X66040000Y-35560000D02*
X66040000Y-45720000D01*
X67310000Y-45720000D02*
X67310000Y-35560000D01*
X59690000Y-35560000D02*
X59690000Y-45720000D01*
%TO.C,J18*%
X166370000Y-144780000D02*
X173990000Y-144780000D01*
X173990000Y-134620000D02*
X166370000Y-134620000D01*
X172720000Y-134620000D02*
X172720000Y-144780000D01*
X173990000Y-144780000D02*
X173990000Y-134620000D01*
X166370000Y-134620000D02*
X166370000Y-144780000D01*
%TO.C,J17*%
X166370000Y-45720000D02*
X173990000Y-45720000D01*
X173990000Y-35560000D02*
X166370000Y-35560000D01*
X172720000Y-35560000D02*
X172720000Y-45720000D01*
X173990000Y-45720000D02*
X173990000Y-35560000D01*
X166370000Y-35560000D02*
X166370000Y-45720000D01*
%TO.C,J16*%
X59690000Y-144780000D02*
X67310000Y-144780000D01*
X67310000Y-134620000D02*
X59690000Y-134620000D01*
X66040000Y-134620000D02*
X66040000Y-144780000D01*
X67310000Y-144780000D02*
X67310000Y-134620000D01*
X59690000Y-134620000D02*
X59690000Y-144780000D01*
%TO.C,J3*%
X59690000Y-77046668D02*
X67310000Y-77046668D01*
X67310000Y-66886668D02*
X59690000Y-66886668D01*
X66040000Y-66886668D02*
X66040000Y-77046668D01*
X67310000Y-77046668D02*
X67310000Y-66886668D01*
X59690000Y-66886668D02*
X59690000Y-77046668D01*
%TO.C,J4*%
X156150000Y-64710000D02*
X157480000Y-64710000D01*
X156150000Y-66040000D02*
X156150000Y-64710000D01*
X156150000Y-67310000D02*
X156150000Y-72450000D01*
X156150000Y-67310000D02*
X158810000Y-67310000D01*
X156150000Y-72450000D02*
X158810000Y-72450000D01*
X158810000Y-67310000D02*
X158810000Y-72450000D01*
%TO.C,J10*%
X156150000Y-120590000D02*
X157480000Y-120590000D01*
X156150000Y-121920000D02*
X156150000Y-120590000D01*
X156150000Y-123190000D02*
X156150000Y-130870000D01*
X156150000Y-123190000D02*
X158810000Y-123190000D01*
X156150000Y-130870000D02*
X158810000Y-130870000D01*
X158810000Y-123190000D02*
X158810000Y-130870000D01*
%TO.C,R2*%
X99322936Y-82910000D02*
X100777064Y-82910000D01*
X99322936Y-84730000D02*
X100777064Y-84730000D01*
D12*
%TO.C,J6*%
X79060000Y-46620000D02*
X79060000Y-47620000D01*
X79560000Y-47120000D02*
X78560000Y-47120000D01*
X83110000Y-48370000D02*
X83110000Y-61070000D01*
X75010000Y-48370000D02*
X83110000Y-48370000D01*
X83110000Y-61070000D02*
X80660000Y-63870000D01*
X75010000Y-61070000D02*
X75010000Y-48370000D01*
X80660000Y-63870000D02*
X77460000Y-63870000D01*
X77460000Y-63870000D02*
X75010000Y-61070000D01*
X79060000Y-64620000D02*
X79060000Y-65620000D01*
D11*
%TO.C,J1*%
X96990000Y-74990000D02*
X96990000Y-73660000D01*
X98320000Y-74990000D02*
X96990000Y-74990000D01*
X99590000Y-74990000D02*
X104730000Y-74990000D01*
X99590000Y-74990000D02*
X99590000Y-72330000D01*
X104730000Y-74990000D02*
X104730000Y-72330000D01*
X99590000Y-72330000D02*
X104730000Y-72330000D01*
%TO.C,J5*%
X156150000Y-57090000D02*
X157480000Y-57090000D01*
X156150000Y-58420000D02*
X156150000Y-57090000D01*
X156150000Y-59690000D02*
X156150000Y-62290000D01*
X156150000Y-59690000D02*
X158810000Y-59690000D01*
X156150000Y-62290000D02*
X158810000Y-62290000D01*
X158810000Y-59690000D02*
X158810000Y-62290000D01*
%TO.C,SW4*%
X86150000Y-126000000D02*
X86150000Y-128000000D01*
X87150000Y-124700000D02*
X87600000Y-124250000D01*
X87150000Y-129300000D02*
X87600000Y-129750000D01*
X87600000Y-124250000D02*
X90200000Y-124250000D01*
X87600000Y-129750000D02*
X90200000Y-129750000D01*
X90650000Y-124700000D02*
X90200000Y-124250000D01*
X90650000Y-129300000D02*
X90200000Y-129750000D01*
X91650000Y-126000000D02*
X91650000Y-128000000D01*
%TO.C,SW2*%
X132790000Y-126000000D02*
X132790000Y-128000000D01*
X133790000Y-124700000D02*
X134240000Y-124250000D01*
X133790000Y-129300000D02*
X134240000Y-129750000D01*
X134240000Y-124250000D02*
X136840000Y-124250000D01*
X134240000Y-129750000D02*
X136840000Y-129750000D01*
X137290000Y-124700000D02*
X136840000Y-124250000D01*
X137290000Y-129300000D02*
X136840000Y-129750000D01*
X138290000Y-126000000D02*
X138290000Y-128000000D01*
%TO.C,C1*%
X101140000Y-49240000D02*
X101640000Y-49240000D01*
X101390000Y-48990000D02*
X101390000Y-49490000D01*
X101880000Y-49604437D02*
X101880000Y-49740000D01*
X101880000Y-49604437D02*
X102944437Y-48540000D01*
X101880000Y-51995563D02*
X101880000Y-51860000D01*
X101880000Y-51995563D02*
X102944437Y-53060000D01*
X102944437Y-48540000D02*
X106400000Y-48540000D01*
X102944437Y-53060000D02*
X106400000Y-53060000D01*
X106400000Y-48540000D02*
X106400000Y-49740000D01*
X106400000Y-53060000D02*
X106400000Y-51860000D01*
%TO.C,J8*%
X95310000Y-87690000D02*
X93980000Y-87690000D01*
X95310000Y-86360000D02*
X95310000Y-87690000D01*
X95310000Y-85090000D02*
X95310000Y-79950000D01*
X95310000Y-85090000D02*
X92650000Y-85090000D01*
X95310000Y-79950000D02*
X92650000Y-79950000D01*
X92650000Y-85090000D02*
X92650000Y-79950000D01*
%TO.C,J2*%
X92650000Y-95190000D02*
X93980000Y-95190000D01*
X92650000Y-96520000D02*
X92650000Y-95190000D01*
X92650000Y-97790000D02*
X92650000Y-102930000D01*
X92650000Y-97790000D02*
X95310000Y-97790000D01*
X92650000Y-102930000D02*
X95310000Y-102930000D01*
X95310000Y-97790000D02*
X95310000Y-102930000D01*
%TO.C,C3*%
X144528748Y-130505000D02*
X145951252Y-130505000D01*
X144528748Y-132325000D02*
X145951252Y-132325000D01*
%TO.C,J13*%
X156150000Y-100270000D02*
X157480000Y-100270000D01*
X156150000Y-101600000D02*
X156150000Y-100270000D01*
X156150000Y-102870000D02*
X156150000Y-118170000D01*
X156150000Y-102870000D02*
X158810000Y-102870000D01*
X156150000Y-118170000D02*
X158810000Y-118170000D01*
X158810000Y-102870000D02*
X158810000Y-118170000D01*
%TO.C,R6*%
X129310436Y-82490000D02*
X130764564Y-82490000D01*
X129310436Y-84310000D02*
X130764564Y-84310000D01*
%TO.C,C4*%
X134828748Y-130505000D02*
X136251252Y-130505000D01*
X134828748Y-132325000D02*
X136251252Y-132325000D01*
%TO.C,J14*%
X138490000Y-69790000D02*
X138490000Y-71120000D01*
X137160000Y-69790000D02*
X138490000Y-69790000D01*
X135890000Y-69790000D02*
X128210000Y-69790000D01*
X135890000Y-69790000D02*
X135890000Y-72450000D01*
X128210000Y-69790000D02*
X128210000Y-72450000D01*
X135890000Y-72450000D02*
X128210000Y-72450000D01*
%TO.C,J15*%
X128210000Y-69910000D02*
X128210000Y-68580000D01*
X129540000Y-69910000D02*
X128210000Y-69910000D01*
X130810000Y-69910000D02*
X138490000Y-69910000D01*
X130810000Y-69910000D02*
X130810000Y-67250000D01*
X138490000Y-69910000D02*
X138490000Y-67250000D01*
X130810000Y-67250000D02*
X138490000Y-67250000D01*
%TO.C,BZ1*%
X147300000Y-109220000D02*
G75*
G03*
X132100000Y-109220000I-7600000J0D01*
G01*
X132100000Y-109220000D02*
G75*
G03*
X147300000Y-109220000I7600000J0D01*
G01*
%TO.C,R1*%
X129310436Y-91370000D02*
X130764564Y-91370000D01*
X129310436Y-93190000D02*
X130764564Y-93190000D01*
%TO.C,U2*%
X97340000Y-56990000D02*
X91330000Y-56990000D01*
X95090000Y-50170000D02*
X91330000Y-50170000D01*
X91330000Y-56990000D02*
X91330000Y-55730000D01*
X91330000Y-50170000D02*
X91330000Y-51430000D01*
%TO.C,J7*%
X110430000Y-74870000D02*
X111760000Y-74870000D01*
X110430000Y-76200000D02*
X110430000Y-74870000D01*
X110430000Y-77470000D02*
X110430000Y-85150000D01*
X110430000Y-77470000D02*
X113090000Y-77470000D01*
X110430000Y-85150000D02*
X113090000Y-85150000D01*
X113090000Y-77470000D02*
X113090000Y-85150000D01*
%TO.C,J9*%
X95310000Y-118170000D02*
X93980000Y-118170000D01*
X95310000Y-116840000D02*
X95310000Y-118170000D01*
X95310000Y-115570000D02*
X95310000Y-107890000D01*
X95310000Y-115570000D02*
X92650000Y-115570000D01*
X95310000Y-107890000D02*
X92650000Y-107890000D01*
X92650000Y-115570000D02*
X92650000Y-107890000D01*
%TO.C,R5*%
X129310436Y-85450000D02*
X130764564Y-85450000D01*
X129310436Y-87270000D02*
X130764564Y-87270000D01*
%TO.C,SW3*%
X75990000Y-126000000D02*
X75990000Y-128000000D01*
X76990000Y-124700000D02*
X77440000Y-124250000D01*
X76990000Y-129300000D02*
X77440000Y-129750000D01*
X77440000Y-124250000D02*
X80040000Y-124250000D01*
X77440000Y-129750000D02*
X80040000Y-129750000D01*
X80490000Y-124700000D02*
X80040000Y-124250000D01*
X80490000Y-129300000D02*
X80040000Y-129750000D01*
X81490000Y-126000000D02*
X81490000Y-128000000D01*
%TO.C,C5*%
X78028748Y-130505000D02*
X79451252Y-130505000D01*
X78028748Y-132325000D02*
X79451252Y-132325000D01*
%TO.C,J11*%
X76670000Y-74990000D02*
X76670000Y-73660000D01*
X78000000Y-74990000D02*
X76670000Y-74990000D01*
X79270000Y-74990000D02*
X92030000Y-74990000D01*
X79270000Y-74990000D02*
X79270000Y-72330000D01*
X92030000Y-74990000D02*
X92030000Y-72330000D01*
X79270000Y-72330000D02*
X92030000Y-72330000D01*
%TO.C,C2*%
X101140000Y-56860000D02*
X101640000Y-56860000D01*
X101390000Y-56610000D02*
X101390000Y-57110000D01*
X101880000Y-57224437D02*
X101880000Y-57360000D01*
X101880000Y-57224437D02*
X102944437Y-56160000D01*
X101880000Y-59615563D02*
X101880000Y-59480000D01*
X101880000Y-59615563D02*
X102944437Y-60680000D01*
X102944437Y-56160000D02*
X106400000Y-56160000D01*
X102944437Y-60680000D02*
X106400000Y-60680000D01*
X106400000Y-56160000D02*
X106400000Y-57360000D01*
X106400000Y-60680000D02*
X106400000Y-59480000D01*
%TO.C,U3*%
X147320000Y-91420000D02*
X150770000Y-91420000D01*
X147320000Y-91420000D02*
X145370000Y-91420000D01*
X147320000Y-81300000D02*
X149270000Y-81300000D01*
X147320000Y-81300000D02*
X145370000Y-81300000D01*
%TO.C,R4*%
X129310436Y-88410000D02*
X130764564Y-88410000D01*
X129310436Y-90230000D02*
X130764564Y-90230000D01*
%TO.C,D3*%
X133647500Y-85200000D02*
X133647500Y-87470000D01*
X133647500Y-87470000D02*
X137707500Y-87470000D01*
X137707500Y-85200000D02*
X133647500Y-85200000D01*
%TO.C,C6*%
X88188748Y-130505000D02*
X89611252Y-130505000D01*
X88188748Y-132325000D02*
X89611252Y-132325000D01*
%TO.C,D1*%
X133647500Y-91120000D02*
X133647500Y-93390000D01*
X133647500Y-93390000D02*
X137707500Y-93390000D01*
X137707500Y-91120000D02*
X133647500Y-91120000D01*
%TO.C,SW1*%
X142490000Y-126000000D02*
X142490000Y-128000000D01*
X143490000Y-124700000D02*
X143940000Y-124250000D01*
X143490000Y-129300000D02*
X143940000Y-129750000D01*
X143940000Y-124250000D02*
X146540000Y-124250000D01*
X143940000Y-129750000D02*
X146540000Y-129750000D01*
X146990000Y-124700000D02*
X146540000Y-124250000D01*
X146990000Y-129300000D02*
X146540000Y-129750000D01*
X147990000Y-126000000D02*
X147990000Y-128000000D01*
%TO.C,J12*%
X158810000Y-95310000D02*
X157480000Y-95310000D01*
X158810000Y-93980000D02*
X158810000Y-95310000D01*
X158810000Y-92710000D02*
X158810000Y-74870000D01*
X158810000Y-92710000D02*
X156150000Y-92710000D01*
X158810000Y-74870000D02*
X156150000Y-74870000D01*
X156150000Y-92710000D02*
X156150000Y-74870000D01*
%TO.C,D4*%
X133647500Y-82240000D02*
X133647500Y-84510000D01*
X133647500Y-84510000D02*
X137707500Y-84510000D01*
X137707500Y-82240000D02*
X133647500Y-82240000D01*
%TO.C,R3*%
X100777064Y-82190000D02*
X99322936Y-82190000D01*
X100777064Y-80370000D02*
X99322936Y-80370000D01*
%TO.C,D2*%
X133647500Y-88160000D02*
X133647500Y-90430000D01*
X133647500Y-90430000D02*
X137707500Y-90430000D01*
X137707500Y-88160000D02*
X133647500Y-88160000D01*
%TD*%
M02*
